<svg width="24" height="34" viewBox="0 0 24 34" fill="none" xmlns="http://www.w3.org/2000/svg">
<path d="M7.10638 5V23C7.10638 23.7956 7.37538 24.5587 7.8542 25.1213C8.33301 25.6839 8.98242 26 9.65957 26H19.8723C20.5495 26 21.1989 25.6839 21.6777 25.1213C22.1565 24.5587 22.4255 23.7956 22.4255 23V9.86299C22.4255 9.46333 22.3575 9.06771 22.2255 8.69936C22.0935 8.33101 21.9002 7.99736 21.657 7.71799L17.4251 2.855C16.9481 2.30699 16.3075 2.0001 15.6404 2H9.65957C8.98242 2 8.33301 2.31607 7.8542 2.87868C7.37538 3.44129 7.10638 4.20435 7.10638 5V5Z" stroke="white" stroke-width="3" stroke-linecap="round" stroke-linejoin="round"/>
<path d="M17.3191 26V29C17.3191 29.7957 17.0501 30.5587 16.5713 31.1213C16.0925 31.6839 15.4431 32 14.7659 32H4.55319C3.87604 32 3.22663 31.6839 2.74781 31.1213C2.269 30.5587 2 29.7957 2 29V12.5C2 11.7044 2.269 10.9413 2.74781 10.3787C3.22663 9.8161 3.87604 9.50003 4.55319 9.50003H7.10638" stroke="white" stroke-width="3" stroke-linecap="round" stroke-linejoin="round"/>
</svg>
