<svg width="193" height="67" viewBox="0 0 193 67" fill="none" xmlns="http://www.w3.org/2000/svg">
<path opacity="0.8" d="M204.371 58.7326C203.925 55.0569 201.582 52.3324 199.637 49.4141C198.989 49.5506 198.387 49.4436 197.835 49.0758C197.217 49.1009 196.066 48.9422 196.51 48.3694C199.192 44.8908 196.439 42.6554 194.91 40.1059C193.317 39.7175 191.772 39.9158 189.438 40.936C192.044 37.0098 192.618 32.7191 196.722 30.8494C198.176 30.1827 199.161 29.4255 198.242 27.688C196.302 26.4753 195.465 28.4334 193.93 29.5175C193.665 27.4281 192.285 26.2601 191.645 24.7118C190.794 22.6716 191.976 21.2669 193.744 20.7057C195.639 20.088 195.6 21.8391 195.882 23.0391C196.498 25.602 198.077 26.3934 200.55 25.3097C201.329 24.9639 201.782 24.7627 202.776 25.2699C204.205 25.9964 205.747 24.8323 205.229 23.3075C204.548 21.3182 205.626 20.0289 206.102 18.4519C206.454 18.2132 206.807 17.9746 207.149 17.7429C207.393 17.3209 207.63 16.8885 207.873 16.4664C208.302 16.1612 208.643 15.7941 208.584 15.2144C207.274 14.6642 206.175 14.0466 205.178 15.9919C204.726 16.8878 202.754 17.1482 201.797 16.4046C200.725 15.5575 201.461 14.4998 203.366 13.7396C201.364 13.5069 200.119 13.3662 199.156 12.3239C198.544 13.6308 200.495 17.9664 196.379 14.5665C195.523 13.8603 194.133 15.784 192.925 16.39C192.505 16.9313 192.095 17.4657 191.675 18.0071C189.387 19.6766 189.757 16.9609 189.016 16.2678C187.946 15.2679 188.168 13.6962 188.925 12.7147C189.762 11.6494 190.827 12.4861 191.604 13.2762C191.989 13.6661 192.757 14.1749 192.886 13.7397C193.55 11.3694 196.541 12.3699 197.485 10.3241C198.266 8.61653 199.506 8.17018 200.57 10.2783C201.038 11.2165 202.065 10.9453 202.811 11.2875C203.037 10.8621 203.263 10.4367 203.483 10.001C203.596 9.40961 203.703 8.80789 203.828 8.20953C202.22 5.22977 206.332 6.68095 206.341 4.95092C206.215 4.76422 206.095 4.58789 205.976 4.41155C205.305 3.82221 204.634 3.23286 203.963 2.64352C203.046 2.71938 202.19 2.95114 201.478 3.5536C200.612 4.35167 199.815 5.67729 198.608 3.93836C196.993 2.49061 197.115 2.6044 198.605 0.96132C199.518 -0.0350895 198.503 -1.73714 199.457 -2.8971C199.02 -4.32527 197.286 -3.8477 196.574 -4.87794C197.154 -4.8924 197.66 -4.9932 198.107 -5.20474C197.66 -4.9932 197.154 -4.8924 196.574 -4.87794C196.483 -4.92247 196.361 -5.03625 196.302 -5.01152C193.108 -3.74216 192.504 -6.55522 191.169 -8.23767C191.169 -8.23767 191.169 -8.23767 191.162 -8.24804C187.383 -7.17261 187.101 -7.34433 187.003 -10.9078C186.427 -11.2442 185.338 -11.4902 185.268 -11.125C184.748 -8.00534 181.664 -9.88053 180.142 -8.44218C179.282 -7.63373 179.644 -10.6307 178.031 -10.3103C178.071 -9.06693 177.939 -7.96481 176.221 -8.31411C175.926 -8.74976 175.722 -9.14088 175.601 -9.49784C175.732 -9.1479 175.936 -8.75678 176.221 -8.31411C175.4 -8.49945 174.628 -8.61219 174.133 -8.38294C174.139 -7.43463 174.156 -6.49334 174.163 -5.54503C174.489 -5.04013 174.767 -4.51752 174.187 -4.03408C173.956 -2.834 174.786 -1.38425 177.077 0.392273C177.488 1.02165 177.946 1.96682 177.936 3.0924C177.921 4.43341 177.229 5.31016 176.704 6.21007C175.197 8.74258 175.003 11.2937 174.832 13.2993C174.597 16.3475 175.615 15.8853 175.616 19.5745C175.61 23.2082 174.613 26.6056 175.928 27.4093C175.942 27.4301 177.034 28.0825 177.375 28.7436C177.424 28.8162 177.513 29.0136 177.508 29.2742C177.467 30.3757 176.475 30.1394 175.795 30.3422C173.238 29.8042 172.51 28.9964 172.332 28.3306C172.05 27.2661 173.258 26.6602 173.113 25.2613C172.967 23.8172 171.595 23.7781 170.466 21.8198C169.366 19.903 170.327 19.3126 169.197 17.1285C168.225 15.2455 167.241 15.1551 166.942 13.5732C166.714 12.3207 167.239 11.8897 167.254 10.5036C167.274 9.41613 166.985 7.87229 165.531 5.96835C162.964 6.97976 161.86 5.12549 160.834 3.43046C160.184 2.3581 160.419 0.807138 158.748 0.2595C158.094 0.0521588 158.473 -0.794632 158.9 -1.37079C159.492 -2.19474 160.088 -2.85545 161.225 -2.76263C162.271 -2.66918 162.548 -1.81308 163.029 -1.12514C163.485 -0.450922 162.553 0.875631 163.822 1.03006C165.233 1.19391 165.24 -0.338098 165.835 -1.13428C166.276 -1.73485 166.702 -2.35617 167.111 -2.98083C167.089 -4.64464 167.074 -6.29807 167.059 -7.95151C166.996 -8.04486 166.933 -8.13822 166.87 -8.23157C165.873 -7.179 167.083 -5.07882 165.662 -4.58606C163.805 -3.93392 164.366 -6.65784 163.029 -7.11402C162.597 -7.26038 161.984 -7.4958 162.197 -8.23027C161.233 -8.60567 160.727 -9.30734 160.751 -10.367C160.125 -9.97359 159.538 -9.45537 158.859 -9.20747C156.735 -8.43537 155.404 -6.02221 156.823 -4.35076C158.795 -1.99535 156.842 -1.59614 155.622 -0.649707C155.746 0.203991 155.774 1.13826 156.517 1.67847C157.586 2.45264 158.549 3.58534 157.406 4.5104C155.986 5.65277 155.69 3.62958 154.918 2.95757C154.201 4.71338 154.417 6.30637 155.964 7.49753C156.984 8.2894 157.029 9.22701 156.783 10.316C157.842 10.8089 158.553 11.6585 159.112 12.6412C160.352 13.6017 161.37 14.6368 160.337 16.3496C159.375 17.923 158.456 19.6038 156.118 18.5849C155.12 18.9879 154.356 20.5634 153.141 19.6166C152.17 18.8521 153.414 17.9646 153.589 17.1053C153.941 15.3694 153.553 14.0139 151.392 13.949C150.823 14.9847 150.162 15.9307 148.74 16.1977C147.786 14.4084 148.566 12.6556 148.999 11.0164C149.568 8.86216 150.356 10.2948 151.028 11.0648C154.17 7.35022 154.332 6.13673 152.222 2.43791C150.538 1.49088 148.853 0.543844 147.165 -0.3858C146.027 0.323846 144.882 1.02312 144.308 2.31939C144.628 5.38455 145.888 8.67591 142.244 10.7787C143.06 12.2077 141.383 12.7682 141.175 13.8466C142.869 17.2217 143.897 20.6849 143.289 24.5903C143.049 26.1135 145.591 25.936 145.973 27.4166C141.347 28.1124 141.382 28.1191 140.544 31.9982C140.373 32.7949 140.213 33.3866 140.926 33.993C143.142 35.8812 143.123 38.1776 142.063 40.634C141.656 41.9534 141.231 43.2695 140.823 44.5889C139.498 45.4249 131.218 40.6089 131.356 36.9917C130.851 36.3803 130.877 35.0774 130.687 34.2381C129.352 35.036 127.439 34.7575 126.833 36.9676C126.629 37.6951 124.762 38.8683 123.538 38.2446C122.314 37.6209 121.492 36.2267 122.002 34.6564C122.682 32.5327 122.468 30.6965 120.435 29.078C120.001 32.7285 118.37 33.8932 115.81 32.9488C114.921 32.9758 113.64 33.1619 112.542 33.9963C109.936 36.0015 111.257 39.5843 108.42 41.7613C107.498 42.4764 105.843 43.2487 104.817 42.6722C104.207 42.3291 104.15 41.6868 103.426 41.3758C102.628 41.0235 101.682 41.3914 101.028 41.7433C100.471 41.5457 100.039 40.9756 99.6321 40.374C99.3365 40.317 99.0234 40.2566 98.7277 40.1996C97.1898 43.8266 95.6129 40.8709 94.0591 40.2287C93.248 39.9912 92.4132 39.8303 91.6363 39.5091C90.9848 39.2392 89.5044 39.6664 89.9021 38.3992C90.2213 37.3513 89.8182 35.8395 91.6037 35.3269C95.3271 34.2588 96.0109 32.6769 94.875 28.6968C94.5169 28.1678 94.1589 27.6388 93.8009 27.1098C93.2499 24.3068 90.7931 26.1963 89.4532 25.3337C85.7677 28.3574 82.0648 31.3776 78.3793 34.4012C78.1254 35.8585 76.9705 35.6269 76.2348 35.2325C75.5897 34.8827 76.2058 34.0725 76.5222 33.6013C77.1651 32.6519 77.0794 31.3186 78.1759 30.637C77.8589 29.5206 79.4874 29.9157 79.436 29.0129C80.6951 27.2533 81.7947 25.5261 79.7407 24.3906C79.2282 24.6165 78.7156 24.8424 78.2134 25.0612C78.309 25.3142 78.3871 25.5637 78.3228 25.8039C78.1637 26.3955 77.459 26.9632 77.3384 26.6062C77.2108 26.2389 77.0453 25.9274 76.828 25.651C76.5611 25.7258 74.5773 26.1913 72.8277 24.8799C70.7151 23.3002 70.9674 20.634 70.9805 20.5192C70.3785 18.8699 69.237 17.5856 68.3653 16.1188C67.6496 16.6031 66.9339 17.0875 66.2182 17.5719L64.6105 18.66C61.8928 20.4992 52.1803 23.5336 55.0989 19.6225C57.9407 18.168 57.1651 15.0331 58.2783 12.7673C58.1589 12.591 58.0396 12.4147 57.9132 12.228C57.5606 12.4666 57.1975 12.7123 56.8449 12.951C55.9782 15.2012 52.9899 15.5902 52.3442 18.1445C52.175 18.7883 51.1653 18.4584 51.076 17.6114C50.9119 15.9833 50.15 14.8353 48.4667 15.052C46.5509 15.3051 47.5607 17.1322 47.0886 18.1777C46.3768 19.7181 46.4344 21.0099 47.5136 22.3364C47.9936 22.934 48.3167 23.9252 47.503 24.3096C46.3638 24.8386 46.2269 23.6306 45.9091 22.8929C45.0085 20.7802 44.9784 18.4564 44.9493 16.2681C44.9318 14.2534 45.887 12.2458 48.5934 12.2895C48.7697 12.1701 48.946 12.0508 49.1328 11.9244C47.6754 8.67613 50.4042 6.45121 51.1845 3.7605C51.2592 3.51334 51.8687 3.25204 52.2233 3.28431C52.8454 3.33208 52.9121 3.92217 53.0651 4.4387C53.2822 5.18407 51.6393 6.22028 53.4247 6.6907C54.3933 6.11077 55.2499 5.41002 55.7357 4.34017C55.7267 3.54473 57.815 2.11633 54.9252 2.18164C53.5567 2.21549 53.6968 0.880555 54.2642 0.0428805C54.9071 -0.906483 55.8016 -1.66305 56.5877 -2.51267C56.6447 -2.80835 56.7121 -3.11105 56.762 -3.41709C53.2708 -2.43051 50.7298 -3.6599 49.0024 -6.77083C48.0554 -6.58359 47.013 -7.11823 46.1286 -6.41383C43.853 -4.94938 42.7521 -6.39725 41.7949 -8.16918C41.3751 -8.09677 40.9589 -7.99662 40.5424 -7.94161C39.6506 -7.80686 38.9516 -6.42635 37.9836 -7.25332C36.9002 -8.18371 37.9062 -9.37876 38.3003 -10.1596C39.7804 -13.1123 40.5079 -9.91448 41.6146 -9.61997C43.8557 -9.54875 45.9244 -9.7994 46.7925 -12.3379C46.4532 -13.666 44.1204 -14.4313 45.688 -16.2938C45.5998 -16.4912 45.5116 -16.6886 45.4234 -16.886C43.9966 -15.754 42.5594 -14.615 41.1396 -13.4726C41.2141 -13.2508 41.2468 -13.0461 41.1852 -12.9137C40.976 -12.5301 40.6107 -12.6005 40.3693 -12.8454C34.718 -8.27965 29.1157 -3.64125 23.573 1.06274C22.7201 1.79124 21.8601 2.50938 21.0071 3.23788C19.7847 4.29202 18.5623 5.34617 17.3399 6.40031C16.2799 7.31437 15.2164 8.24583 14.1633 9.17026C13.0654 10.1402 11.9709 11.0927 10.88 12.0729C9.68198 13.1408 8.47364 14.2157 7.28268 15.2939C6.31259 16.1622 5.3495 17.0409 4.3794 17.9091C2.97796 19.1903 1.58688 20.4645 0.202826 21.749C-0.566837 22.4665 -1.34351 23.1737 -2.1028 23.8841C-4.27024 25.9106 -6.4203 27.9404 -8.55631 29.991C-22.5664 43.4351 -35.9117 57.5485 -48.4392 72.3787C-49.559 73.6962 -49.4366 75.3072 -48.6745 76.5003C-48.4498 76.8323 -48.1871 77.1535 -47.8761 77.4119C-47.5651 77.6702 -47.2163 77.8728 -46.8401 78.0265C-46.6555 78.0981 -46.4571 78.1454 -46.2588 78.1926C-45.4657 78.3365 -44.5983 78.188 -43.7581 77.6194C-39.8999 74.9628 -35.155 78.8899 -33.8123 82.6392C-31.935 87.8265 -35.3539 93.7245 -38.2397 97.8403C-40.1934 100.63 -42.2447 103.364 -44.3449 106.071C-50.6524 114.181 -57.4552 122.006 -63.854 129.982C-65.6208 132.175 -64.3851 135.029 -61.8372 135.755C-57.8795 136.888 -53.9289 138.01 -49.9713 139.143C-56.7709 150.414 -63.5705 161.685 -70.3668 172.939C-70.645 173.4 -70.77 173.908 -70.7525 174.425C-70.742 174.932 -70.5994 175.456 -70.3634 175.916C-70.2084 176.235 -70.0048 176.536 -69.7667 176.798C-69.6477 176.929 -69.5287 177.06 -69.3889 177.177C-68.466 178.005 -67.2058 178.392 -66.0218 177.817C-61.8467 175.763 -57.5279 176.379 -53.8587 178.493C-53.6145 178.631 -53.3738 178.785 -53.133 178.94C-50.7427 180.483 -48.6814 182.657 -47.1635 185.123C-47.0124 185.369 -46.8717 185.622 -46.731 185.874C-46.4496 186.379 -46.1959 186.888 -45.963 187.411C-45.6171 188.19 -45.3302 188.994 -45.0987 189.806C-44.4932 191.952 -44.2175 194.124 -44.2231 196.306C-44.2179 205.029 -48.4743 213.868 -52.2873 221.53C-52.6093 222.172 -52.921 222.806 -53.2294 223.423C-53.6576 224.288 -53.6543 225.253 -53.3426 226.116C-53.1371 226.688 -52.7965 227.213 -52.3455 227.634C-52.2301 227.738 -52.1218 227.831 -51.996 227.927C-51.5038 228.274 -50.9152 228.496 -50.2793 228.519C-50.1264 228.522 -49.9632 228.517 -49.7966 228.495C-47.1275 228.171 -44.448 227.84 -41.7859 227.505C-41.9985 227.906 -42.2355 228.293 -42.4795 228.67C-43.2323 229.815 -44.156 230.863 -45.2853 231.809C-48.0102 234.107 -46.7034 238.183 -43.0691 238.279C-41.8391 238.309 -40.648 238.259 -39.4885 238.14C-29.3624 237.124 -21.1097 230.994 -12.1126 226.478C-11.763 226.302 -11.4238 226.133 -11.0671 225.967C-10.3712 225.632 -9.66828 225.308 -8.95834 224.994C-7.66658 224.422 -6.29824 223.874 -4.9015 223.413C-4.19794 223.179 -3.49072 222.972 -2.76946 222.786C-1.68756 222.508 -0.608706 222.292 0.488173 222.17C1.21709 222.085 1.94631 222.045 2.66884 222.04C3.0301 222.037 3.388 222.052 3.75293 222.078C5.19525 222.175 6.62511 222.478 8.00803 223.024C12.4601 224.82 17.2299 229.834 15.4839 235.009C14.3096 238.48 17.9329 241.488 20.8012 239.335C20.9983 239.201 21.1847 239.03 21.3674 238.831C34.2662 225.443 48.5131 213.578 63.9236 203.209C66.0757 207.953 68.2382 212.69 70.3903 217.434C71.3711 219.598 73.7638 220.474 75.6589 219.252C75.9286 219.07 76.1946 218.86 76.4429 218.601L111.431 181.159C112.942 184.688 114.457 188.2 115.968 191.73C116.897 193.884 119.384 194.787 121.254 193.551C121.524 193.369 121.773 193.155 122.014 192.886C123.982 190.677 125.926 188.454 127.845 186.217C128.228 185.777 128.6 185.343 128.975 184.893C130.829 182.716 132.669 180.518 134.477 178.296C134.797 177.898 135.118 177.499 135.445 177.111C137.205 174.952 138.941 172.779 140.655 170.576C140.8 170.387 140.952 170.209 141.096 170.02C142.904 167.708 144.68 165.371 146.432 163.021C146.762 162.571 147.1 162.131 147.43 161.68C149.171 159.337 150.888 156.981 152.591 154.603C152.787 154.334 152.966 154.062 153.162 153.793C154.8 151.475 156.43 149.147 158.019 146.801C158.194 146.546 158.369 146.292 158.555 146.03C160.219 143.573 161.859 141.102 163.475 138.617C163.732 138.216 163.987 137.832 164.244 137.431C165.88 134.887 167.509 132.333 169.096 129.761C169.117 129.747 169.124 129.712 169.137 129.688C170.748 127.085 172.321 124.448 173.873 121.825C174.034 121.549 174.192 121.291 174.354 121.016C175.885 118.407 177.384 115.773 178.867 113.137C179.031 112.844 179.196 112.551 179.361 112.258C182.37 106.849 185.267 101.365 188.056 95.8322C188.186 95.5777 188.32 95.3058 188.45 95.0513C189.841 92.2799 191.197 89.5018 192.522 86.6996C192.598 86.5428 192.673 86.3859 192.741 86.2187C195.446 80.5167 198.025 74.7634 200.489 68.9519C200.626 68.6175 200.704 68.4432 200.814 68.2028C202.516 64.1473 203.684 60.8912 204.45 58.6487L204.371 58.7326ZM184.639 -2.10948C184.357 -2.75017 184.775 -3.09353 185.232 -3.35725C185.588 -3.56816 186.056 -3.74857 186.333 -3.27112C186.636 -2.77994 186.542 -2.24779 186.051 -1.90046C185.543 -1.55648 185.069 -1.71993 184.639 -2.10948ZM177.459 18.8565C177.248 18.5002 177.085 18.0358 177.545 17.7547C178.037 17.4525 178.538 17.5671 178.926 18.0299C179.222 18.5559 179.17 19.1051 178.696 19.4106C178.115 19.8037 177.733 19.3062 177.459 18.8565ZM177.034 25.1784C176.789 23.9225 177.296 22.8386 178.044 21.9546C178.709 21.1718 179.783 21.3067 180.251 22.1546C180.779 23.1131 181.5 24.4698 180.123 25.2506C179.282 25.7289 178.086 25.9943 177.034 25.1784V25.1784ZM154.45 20.1216C156.041 22.1149 155.919 23.4531 155.015 24.8663C154.863 23.5473 154.694 22.225 154.45 20.1216ZM152.103 30.6636C152.061 28.6804 150.239 27.4633 150.216 25.1048C151.297 25.719 151.978 26.211 152.73 26.5184C154.347 27.1637 154.988 29.452 153.84 30.7731C153.213 31.5 152.115 31.4417 152.092 30.6706L152.103 30.6636ZM183.483 42.8638C183.062 42.2415 182.669 41.6155 183.654 40.9034C185.683 41.9349 186.619 37.6417 188.366 39.62C189.423 40.825 187.394 42.6976 186.394 43.8579C185.65 44.7246 184.227 43.9182 183.476 42.8535L183.483 42.8638ZM38.9536 17.286C37.6217 17.0834 37.9853 15.4308 38.1648 14.2658C38.9532 9.08432 40.0652 5.48345 41.5008 3.46325C42.3853 4.7702 41.0483 6.32538 42.0701 7.3882C43.1361 6.81801 43.6152 5.78294 44.199 4.81315C44.7724 3.85037 45.4573 3.43221 46.354 4.48895C49.8309 6.4309 46.2687 8.20654 46.2087 10.062C45.0894 12.4528 42.7475 13.3724 40.6718 14.5957C40.6983 15.9086 40.4664 17.5325 38.9502 17.3034L38.9536 17.286ZM43.612 22.2698C45.8241 23.6612 44.3665 24.8594 43.1001 25.5804C42.2282 26.0798 40.9373 27.7701 39.8576 25.8844C38.5494 23.5938 41.4497 22.5384 41.8633 20.5798C42.0751 19.5744 43.1645 21.3627 43.612 22.2698ZM88.4928 36.0711C88.1823 36.372 87.609 36.3517 87.3663 35.9261C86.5364 34.4764 87.1848 33.3116 88.4224 31.9447C89.1773 33.5964 89.7176 34.8641 88.4928 36.0711V36.0711ZM72.8476 37.6913C72.9931 37.6381 73.4716 38.01 73.4869 38.2114C73.575 39.3919 72.884 39.9351 71.5098 40.1392C71.3893 38.7992 71.8322 38.0457 72.8476 37.6913ZM76.1573 29.5985C76.1094 31.2037 76.148 33.2496 73.5273 33.042C72.429 33.4526 72.8907 35.4087 71.5909 35.3205C70.6212 35.2508 70.1681 34.0451 69.8631 33.1475C69.5618 32.2776 69.0849 31.1485 69.9309 30.4096C70.7735 29.6881 71.1024 31.0233 71.7462 31.1925C72.1151 31.2906 72.5621 31.1242 72.9682 31.0763C73.1028 29.9567 71.8789 28.3048 73.8356 27.9334C74.7549 27.7498 76.1936 28.3338 76.1539 29.6159L76.1573 29.5985ZM129.015 50.4482C127.17 50.5167 125.854 50.5606 124.347 50.6128C124.852 49.3031 124.793 47.4068 126.359 47.1944C127.008 47.103 127.921 49.0559 129.015 50.4482V50.4482ZM114.159 39.2688C115.685 38.9316 116.207 40.6197 117.279 41.2862C117.68 41.5439 117.508 42.2503 117.084 42.2949C115.574 42.5 114.477 41.5037 113.446 40.6285C112.974 40.2219 113.484 39.6799 114.152 39.2584L114.159 39.2688Z" fill="#FF3300"/>
</svg>
