<svg width="33" height="40" viewBox="0 0 33 40" fill="none" xmlns="http://www.w3.org/2000/svg">
<path d="M6.85975 3.17786C7.33682 3.09424 7.82736 3.20233 8.22345 3.47835C8.61955 3.75438 8.88874 4.17573 8.97183 4.64972L11.5824 19.5428C11.6378 19.8588 11.8173 20.1397 12.0814 20.3237C12.3454 20.5077 12.6725 20.5798 12.9905 20.524C13.3086 20.4683 13.5916 20.2893 13.7773 20.0264C13.963 19.7636 14.0362 19.4384 13.9809 19.1224L12.9228 13.0865L13.1274 13.0408C13.8827 12.879 14.6519 12.754 15.0958 12.7621C15.4285 12.7701 15.841 12.8673 16.2463 13.0074C16.4485 13.0752 16.6675 13.2947 16.7372 13.6926L17.5785 18.4918C17.6339 18.8077 17.8133 19.0887 18.0774 19.2727C18.3415 19.4567 18.6685 19.5287 18.9865 19.473C19.3046 19.4172 19.5876 19.2382 19.7733 18.9754C19.9591 18.7125 20.0323 18.3873 19.9769 18.0713L19.3232 14.3421C19.4063 14.3184 19.4896 14.2956 19.5732 14.2737C20.3211 14.0837 20.9697 14.0044 21.288 14.0714C21.5903 14.1314 22.094 14.4385 22.6333 14.8917C22.8676 15.0864 23.0724 15.2814 23.2211 15.4248L23.7834 18.6322C23.8387 18.9481 24.0182 19.229 24.2823 19.4131C24.5463 19.5971 24.8734 19.6691 25.1914 19.6134C25.5095 19.5576 25.7925 19.3786 25.9782 19.1158C26.1639 18.8529 26.2372 18.5277 26.1818 18.2117L25.7641 15.8288L26.5843 15.6851C26.9195 15.6263 27.2632 15.638 27.5933 15.7194C27.9233 15.8008 28.2324 15.9501 28.5006 16.1577C28.7687 16.3652 28.99 16.6264 29.1501 16.9245C29.3102 17.2225 29.4057 17.5507 29.4302 17.8879L29.9143 24.4714C29.9761 25.3175 29.8581 26.1675 29.5679 26.9661L27.2422 33.3716C27.1693 33.5724 27.0444 33.7505 26.8801 33.888C26.7158 34.0255 26.5179 34.1175 26.3065 34.1546L10.9927 36.839C10.7952 36.8735 10.5922 36.859 10.4019 36.7968C10.2116 36.7346 10.0398 36.6267 9.90178 36.4825L5.5668 31.9617C5.1644 31.5425 4.86916 31.0334 4.7058 30.4769L2.58139 23.223C2.49597 22.9324 2.52346 22.6202 2.65843 22.3482C2.7934 22.0762 3.02602 21.8643 3.3103 21.7542L5.63236 20.856L6.00412 22.9767C6.05951 23.2927 6.23897 23.5736 6.50303 23.7577C6.7671 23.9417 7.09412 24.0137 7.41217 23.958C7.73022 23.9022 8.01324 23.7232 8.19897 23.4604C8.3847 23.1975 8.45792 22.8723 8.40253 22.5563L5.37421 5.28035C5.29113 4.80636 5.40096 4.31857 5.67955 3.92428C5.95814 3.52998 6.38267 3.26149 6.85975 3.17786ZM12.5047 10.7012L11.3702 4.2293C11.1764 3.12333 10.5482 2.14017 9.62403 1.49611C8.69981 0.852051 7.55522 0.599843 6.44205 0.794971C5.32887 0.9901 4.33831 1.61658 3.68826 2.5366C3.03821 3.45661 2.78193 4.5948 2.9758 5.70077L5.20631 18.4254L2.42846 19.5018C1.57708 19.8322 0.880439 20.4674 0.47594 21.2821C0.0714398 22.0968 -0.0115566 23.0319 0.243318 23.9031L2.36814 31.1593C2.6404 32.0867 3.13248 32.9354 3.80315 33.634L8.13812 38.1548C8.55245 38.5868 9.0679 38.9102 9.63873 39.0964C10.2096 39.2825 10.8181 39.3256 11.4104 39.2219L26.7242 36.5375C27.3583 36.4261 27.9519 36.1502 28.4448 35.7377C28.9378 35.3253 29.3125 34.7908 29.5312 34.1886L31.8574 27.7855C32.2641 26.6662 32.4292 25.4749 32.3421 24.289L31.858 17.7055C31.8085 17.0313 31.6175 16.3752 31.2971 15.7794C30.9767 15.1837 30.5342 14.6616 29.998 14.2467C29.4618 13.8319 28.8438 13.5335 28.1839 13.3708C27.524 13.2081 26.8368 13.1847 26.1666 13.3022L24.7732 13.5464C24.588 13.371 24.3975 13.2012 24.2019 13.0375C23.6481 12.5721 22.7414 11.8984 21.7922 11.7013C20.8582 11.5064 19.708 11.7424 18.9697 11.9308L18.6581 12.0149C18.289 11.4102 17.7193 10.9526 17.0469 10.7205C16.4397 10.501 15.8023 10.3743 15.1565 10.3445C14.3871 10.3271 13.3599 10.5169 12.619 10.6763L12.5047 10.7012Z" fill="white"/>
</svg>
