<svg width="91" height="107" viewBox="0 0 91 107" fill="none" xmlns="http://www.w3.org/2000/svg">
<g clip-path="url(#clip0_404_21241)">
<path d="M61.5256 61.0649C61.5256 61.0649 61.5325 61.0819 61.5359 61.0922C61.5393 61.0922 61.5427 61.0922 61.5496 61.0888C61.5427 61.0819 61.5359 61.0751 61.5256 61.0683V61.0649Z" fill="#FDC333"/>
<path d="M50.9685 61.4402C51.1533 61.6449 51.3347 61.8497 51.5195 62.0544C51.3347 61.8497 51.1533 61.6449 50.9685 61.4402Z" fill="#FDC333"/>
<path d="M55.886 67.7426C55.8073 68.5137 55.3932 68.6468 54.743 68.4421C54.5617 68.0974 54.24 67.9882 53.8841 67.9302C53.867 67.9302 53.8567 67.9302 53.843 67.9302C56.2111 69.6773 58.5758 71.4277 60.937 73.1884C60.9062 73.1645 60.8754 73.1407 60.8446 73.1202C60.8514 73.0963 60.8514 73.0724 60.8446 73.0383C60.8309 72.9837 60.7317 72.953 60.6495 72.8984C60.6358 72.912 60.6222 72.9291 60.6051 72.9428C59.9377 72.4446 59.2739 71.9498 58.6066 71.455C58.6476 71.4516 58.6955 71.4311 58.7537 71.3868C59.0412 71.1752 58.6682 70.7897 58.4594 70.5337C58.391 70.4484 58.278 70.4007 58.1856 70.3324C57.7134 70.1243 57.5731 70.3358 57.4465 70.5917C56.7963 70.1106 56.1461 69.6329 55.4959 69.1518C55.7354 69.029 56.0126 68.9812 56.3514 69.1074C56.4849 69.1586 56.6286 69.0631 56.7073 68.9266C56.7997 68.7594 56.6799 68.6775 56.567 68.582C56.3548 68.4079 56.1427 68.1691 56.4814 67.9814C56.5841 67.9268 56.656 67.8654 56.7073 67.8006C57.4054 68.5683 58.0967 69.3395 58.7948 70.1038C57.9427 69.1689 57.094 68.2271 56.2453 67.2887C56.0537 67.374 55.9134 67.5208 55.8894 67.746L55.886 67.7426ZM58.0077 70.8374C58.0624 70.8511 58.1172 70.8613 58.172 70.875C58.3396 70.9193 58.3739 71.1752 58.4491 71.3288C58.2541 71.1855 58.0624 71.0387 57.8674 70.8954C57.9119 70.8715 57.9598 70.8477 58.0077 70.834V70.8374Z" fill="#FDC333"/>
<path d="M24.5911 31.2456C24.55 31.1978 24.5089 31.1466 24.4644 31.0988C24.5055 31.1466 24.5466 31.1978 24.5911 31.2456Z" fill="#FDC333"/>
<path d="M59.9104 71.438C59.8728 71.3527 59.8351 71.2742 59.7975 71.1957C60.564 72.0351 61.334 72.8711 62.104 73.7071C62.0355 73.7651 61.9945 73.8538 61.9945 73.9698C62.1245 74.0654 62.2545 74.1643 62.3846 74.2599C62.4154 74.2599 62.4462 74.2599 62.4735 74.2633C62.5215 74.2633 62.5694 74.2633 62.6207 74.2633C62.6618 74.3076 62.6994 74.3486 62.7405 74.3929C62.7199 74.4202 62.696 74.4441 62.6686 74.468C62.8158 74.5772 62.9629 74.6864 63.1066 74.7956C61.6659 73.2294 60.2252 71.6666 58.7914 70.0936C58.8906 70.2028 58.9899 70.312 59.0891 70.4211C59.1781 70.7965 59.291 71.1991 59.9104 71.4346V71.438Z" fill="#FDC333"/>
<path d="M61.4777 73.4716C61.4367 73.4409 61.3511 73.4307 61.2724 73.4307C61.488 73.5911 61.7036 73.7514 61.9157 73.9118C61.8473 73.8606 61.7789 73.8095 61.7104 73.7583C61.6728 73.6525 61.5975 73.5535 61.4777 73.4716Z" fill="#FDC333"/>
<path d="M13.7704 18.385C15.567 20.5449 17.3705 22.7014 19.1808 24.8545C17.3705 22.7048 15.567 20.5483 13.7704 18.385Z" fill="#FDC333"/>
<path d="M52.0704 11.8506C52.416 12.2669 52.7719 11.7755 53.0183 12.0997C53.5966 12.8606 53.6445 12.1338 53.7643 11.8062C53.9149 11.3968 53.7711 11.0146 53.4768 10.6017C53.1278 11.1852 52.6898 11.5844 52.0704 11.8506Z" fill="#FDC333"/>
<path d="M58.059 8.08012C58.0111 8.09718 57.9735 8.21319 57.9838 8.28144C57.9906 8.33945 58.0659 8.38722 58.1343 8.46911C58.1925 8.37016 58.2541 8.30874 58.2575 8.2439C58.2609 8.12789 58.1891 8.03235 58.0625 8.08012H58.059Z" fill="#FDC333"/>
<path d="M44.4049 59.5498C44.2304 59.1711 43.9874 59.137 43.6692 59.3792C43.9019 59.4372 44.073 59.7716 44.4049 59.5498Z" fill="#FDC333"/>
<path d="M51.7247 12.1577C51.4955 12.2055 51.3073 12.3658 51.3038 12.6183C51.3038 12.8128 51.4612 12.9357 51.646 12.8879C51.8548 12.8333 52.0943 12.7582 52.067 12.4102C52.0088 12.2839 51.9198 12.1133 51.7247 12.1543V12.1577Z" fill="#FDC333"/>
<path d="M30.7748 51.2241C31.2949 51.5926 31.8151 51.9645 32.3352 52.3364C31.8151 51.9645 31.2949 51.596 30.7748 51.2241Z" fill="#FDC333"/>
<path d="M17.6374 41.9804C19.3485 43.1712 21.0561 44.3689 22.7637 45.5666C21.0561 44.3689 19.3485 43.1712 17.6374 41.9804Z" fill="#FDC333"/>
<path d="M54.3495 47.3546C54.3427 47.4945 54.3153 47.6208 54.1784 47.6924C54.0621 47.6924 53.9457 47.6924 53.8259 47.6924C52.9636 47.4877 53.3195 48.235 53.1415 48.5625C52.8746 48.5762 52.3647 48.4772 52.3887 48.6615C52.4982 49.5453 51.7693 49.2006 51.4236 49.4019C51.0814 49.3473 50.7358 49.2893 50.3936 49.2347C49.9692 49.303 49.5449 49.1801 49.1206 49.1597C49.0966 49.1221 49.0727 49.088 49.0487 49.0505C49.4149 49.6169 49.781 50.1867 50.1472 50.7532C50.1677 50.702 50.1917 50.6508 50.2225 50.603C50.4415 50.4154 50.2499 50.1253 50.3936 49.9172C50.6229 50.0332 50.8521 50.1458 51.0814 50.2618C51.2525 50.3164 51.4236 50.371 51.5982 50.4256C51.7214 50.3028 51.8582 50.2106 52.0054 50.139C51.8582 50.2106 51.7214 50.3028 51.5982 50.4256C52.197 50.3778 52.5427 50.8351 52.9738 51.1217C53.0286 51.4049 53.0868 51.6881 53.1415 51.9713V51.9782C52.6966 52.6879 52.108 52.9029 51.3381 52.4934C51.3175 52.4832 51.2902 52.49 51.2628 52.49C51.1088 52.2545 50.9582 52.0157 50.8042 51.7802C51.1601 52.333 51.516 52.8824 51.8719 53.4352C51.8959 53.3499 51.9164 53.2646 51.9404 53.1793C51.9164 53.2646 51.8959 53.3499 51.8719 53.4352C52.943 55.0969 54.0141 56.7587 55.0853 58.417C54.8628 58.0724 54.6404 57.7277 54.418 57.3831C54.6233 56.9293 55.205 56.9224 55.5815 56.861C55.8655 56.8167 56.4164 57.2227 56.3993 57.796C56.3412 57.8506 56.283 57.9052 56.2282 57.9598C56.0092 57.97 55.8929 58.086 55.886 58.3078C55.691 58.4579 55.4035 58.4545 55.205 58.5944C58.9214 64.3611 62.542 70.2642 66.7203 75.7237C65.2249 72.8063 63.8355 69.8342 62.542 66.8213C60.1978 61.3617 58.1549 55.7828 56.2796 50.1492C56.0948 50.2413 55.9066 50.3369 55.7218 50.429C55.5472 50.4256 55.4001 50.3778 55.2769 50.3096C55.4035 50.3812 55.5472 50.4256 55.7218 50.429C55.9066 50.3369 56.0948 50.2413 56.2796 50.1492C55.8552 48.873 55.4377 47.5969 55.0305 46.3139C55.01 46.3105 54.9894 46.3071 54.9689 46.3071C54.5343 46.3207 54.7259 47.0748 54.3529 47.3478L54.3495 47.3546ZM54.3495 49.4053C54.2503 49.3678 54.1031 49.2893 54.0244 49.2689C54.1065 49.2893 54.2537 49.3678 54.3495 49.4053ZM54.2195 57.0658C53.7335 56.3082 53.2442 55.5541 52.7582 54.7966C52.7617 54.7455 52.7685 54.6943 52.7685 54.6329C53.2339 54.8683 53.7746 54.8751 54.1784 55.2266C54.1784 55.4518 54.1784 55.6804 54.1818 55.9056C53.9833 56.2844 53.9902 56.5266 54.524 56.4243C54.4932 56.7041 54.3872 56.9156 54.2195 57.0623V57.0658ZM58.48 56.7723C58.4731 56.8269 58.4697 56.8815 58.4663 56.9395C58.3602 57.0043 58.2541 57.0555 58.1412 57.0862C58.2541 57.0555 58.3602 57.0043 58.4663 56.9395C58.4697 56.8849 58.4731 56.8303 58.48 56.7757C58.3328 56.6256 58.2233 56.4174 58.0967 56.2332C58.2233 56.4174 58.3328 56.6256 58.48 56.7757V56.7723ZM56.7621 55.9124C56.8066 56.0728 56.8545 56.2298 56.8887 56.3901C56.8545 56.2298 56.8031 56.0694 56.7587 55.9124H56.7621ZM56.7005 52.1692C56.7176 52.2614 56.6902 52.3637 56.5807 52.4866C56.6902 52.3637 56.7176 52.258 56.7005 52.1692ZM56.064 54.5475C56.1529 54.5987 56.2419 54.6465 56.3275 54.684C56.413 54.7216 56.4986 54.7455 56.5807 54.7489C56.4986 54.7455 56.413 54.7216 56.3275 54.684C56.2419 54.6465 56.1529 54.5987 56.064 54.5475C56.0092 54.6499 55.9237 54.6909 55.8278 54.7079C55.9237 54.6909 56.0092 54.6499 56.064 54.5475ZM55.7218 55.056C55.7218 55.131 55.7218 55.2027 55.7252 55.2709C55.7183 55.2027 55.7183 55.131 55.7218 55.056ZM55.5541 51.1217C55.4412 51.1217 55.3248 51.1217 55.2119 51.1217C55.3248 51.1217 55.4412 51.1217 55.5541 51.1217ZM54.945 50.0434C54.9929 50.098 55.0476 50.1458 55.1024 50.1936C55.0476 50.1492 54.9963 50.098 54.945 50.0434Z" fill="#FDC333"/>
<path d="M25.1044 47.2113C25.9633 47.8153 26.8223 48.4226 27.6778 49.0266C26.8189 48.4192 25.9633 47.8153 25.1044 47.2113Z" fill="#FDC333"/>
<path d="M68.7633 76.1673C69.1808 76.4027 69.5983 76.6382 70.0124 76.8736C70.1116 76.9282 70.2109 76.976 70.3067 76.9726C69.8207 74.8536 69.3416 72.7346 68.8797 70.6122C68.9173 70.7794 68.9515 70.9432 68.9892 71.1104C68.7325 70.7965 68.5306 70.4382 68.4177 70.0014C68.404 69.7148 68.4861 69.5613 68.6401 69.5135C68.5888 69.278 68.5375 69.0392 68.4861 68.8038C68.3492 68.8038 68.2124 68.8038 68.0789 68.8038C67.9489 68.5478 67.9933 68.3533 68.2979 68.3124C68.3253 68.309 68.3492 68.3056 68.3766 68.3022C68.2979 67.9336 68.2226 67.5651 68.1439 67.1966C68.12 67.2205 68.0994 67.241 68.0755 67.2649C67.7538 67.299 67.2473 67.1249 67.1686 67.4866C66.9565 68.4557 66.4295 68.2134 65.8443 67.9541C65.6732 67.9541 65.5021 67.9541 65.331 67.9541V67.9473C65.3173 67.7289 65.3789 67.4184 65.0914 67.3911C64.8245 67.3638 64.6739 67.6504 64.5439 67.862C64.5028 67.9302 64.4857 68.0121 64.4686 68.0974C64.2427 67.5924 64.0203 67.084 63.8013 66.5756C64.3557 66.2105 65.1496 66.2514 65.5055 65.5587C66.515 65.4632 65.7929 65.023 65.6766 64.7023C65.7348 64.6443 65.7895 64.5863 65.8477 64.5317C66.0599 64.8285 66.3542 64.9207 66.7032 64.8729C66.6827 64.5351 66.8059 64.3508 67.1823 64.3542C67.3021 64.3542 67.4219 64.3542 67.5416 64.3474C67.5348 64.3099 67.5245 64.2723 67.5177 64.2348C66.7819 60.6759 66.077 57.1067 65.4063 53.5341C65.3823 53.5478 65.3583 53.558 65.3378 53.5717C65.331 53.6228 65.331 53.674 65.331 53.7286C65.331 53.674 65.331 53.6228 65.3378 53.5717C65.3618 53.558 65.3857 53.5478 65.4063 53.5341C64.6637 49.593 63.9621 45.6417 63.2948 41.6869C63.2846 41.704 63.2709 41.7211 63.2606 41.7415C62.9766 41.7415 62.6925 41.7484 62.4119 41.7518C62.696 41.7518 62.9766 41.7449 63.2606 41.7415C63.2675 41.7211 63.2846 41.704 63.2948 41.6869C63.2093 41.1819 63.1237 40.6769 63.0416 40.1685C62.891 40.1514 62.7405 40.1344 62.5967 40.1071C62.7405 40.1344 62.891 40.1514 63.0416 40.1685C62.8226 38.8377 62.607 37.507 62.3948 36.1728C62.3366 36.3195 62.2306 36.398 62.0731 36.3195C61.6249 36.0909 61.2553 36.3537 60.8617 36.2615C60.6496 36.1489 60.434 36.0636 60.1842 36.0909H60.1636H60.1842C59.8214 35.5757 59.2431 35.3163 58.7982 34.8966C58.5039 34.3882 58.4013 33.4465 57.491 34.3473C57.3883 34.4462 57.1111 34.3712 56.9126 34.378C56.9126 34.3234 56.9092 34.2654 56.9058 34.2108C56.8784 34.0572 56.9777 33.8082 56.7484 33.7877C56.5123 33.7672 56.4986 34.0504 56.3891 34.204C56.1085 34.4701 55.6431 34.0811 55.5233 34.2825C55.075 35.0263 54.6199 34.5077 54.1613 34.378C54.1442 34.0572 54.1921 33.89 53.6993 34.0982C53.3229 34.2586 52.9601 34.3132 52.635 34.2825C52.1286 32.5559 51.629 30.8327 51.1327 29.1061C51.1499 29.0277 51.1464 28.9321 51.1225 28.8639C50.9343 28.294 51.2217 27.9016 51.5776 27.5263C51.694 27.4683 51.8069 27.4137 51.9232 27.3557C52.2312 27.3932 52.4537 27.2567 52.6727 27.0486C52.9773 26.7585 53.1107 27.11 53.275 27.2533C53.4837 27.4376 53.7643 27.6457 53.2989 27.8675C53.0115 28.0586 52.5769 28.3384 52.8814 28.6421C53.3537 29.1061 52.9944 29.1812 52.7172 29.4098C52.4503 29.6316 52.1765 29.8261 51.8445 29.9319C51.735 29.966 51.6324 30.0206 51.6221 30.1571C51.6118 30.2902 51.6871 30.4096 51.8001 30.4062C52.2518 30.3891 52.8506 30.6996 53.0833 30.082C53.2989 29.5122 53.6959 29.5565 54.1202 29.6077C54.5138 29.6555 54.9005 29.7613 55.3145 29.8466C55.0887 29.0242 54.3563 28.9048 53.8157 28.5568C53.9286 28.5568 54.0415 28.5534 54.151 28.5568C54.8183 28.5841 55.2084 28.451 54.6438 27.7378C54.613 27.7003 54.6609 27.6013 54.6746 27.5297C54.9792 27.5399 55.2803 27.5843 55.5815 27.615C56.1906 27.673 56.8237 27.8334 57.4225 27.5331C57.7579 27.2055 57.5286 27.0179 57.2514 26.8438C57.5423 26.3934 57.8298 26.1443 58.4902 26.2672C59.3355 26.4207 60.1842 26.1785 60.7796 25.4312C60.7796 25.4312 60.7796 25.4312 60.7796 25.4278C60.7556 25.2537 60.7317 25.0831 60.7077 24.9091C60.6359 24.933 60.5674 24.991 60.4956 25.0354C59.7838 25.4926 59.1541 25.3868 58.61 24.7487C58.4971 24.6157 58.3807 24.4348 58.1994 24.5099C57.7613 24.6907 57.4088 24.5542 57.3199 24.1448C57.2309 23.7285 57.6176 23.6329 57.9701 23.5306C58.2541 23.4487 58.4629 23.1382 58.3328 22.8618C58.2165 22.6127 57.8708 22.739 57.6244 22.756C57.2651 22.7799 57.1419 23.3566 56.6731 23.1791C56.7689 22.7628 57.1898 22.6673 57.4157 22.3909C58.0043 22.0667 58.699 22.1316 59.3047 21.8757C59.6469 21.961 59.9891 22.036 60.3245 22.1384C60.2937 21.903 60.2594 21.6641 60.2286 21.4287C59.9207 21.4867 59.6195 21.5549 59.3047 21.5344C59.1918 21.3024 59.0138 21.1352 58.7914 21.0158V21.026C58.7606 21.2376 58.699 21.3945 58.6134 21.5071C58.5142 21.6368 58.3841 21.7119 58.237 21.7596C58.3841 21.7119 58.5142 21.6334 58.6134 21.5071C58.7024 21.3945 58.764 21.2376 58.7879 21.026L58.7914 21.0158C58.9385 20.2446 59.4724 20.074 60.0336 19.9341C59.5716 16.4059 59.1404 12.8743 58.74 9.33921C58.586 9.17884 58.634 8.85468 58.3294 8.89221C57.9461 8.93657 58.0317 9.31533 57.8914 9.5303C57.6039 9.97047 57.5697 10.4277 57.5936 10.9157C57.5936 11.5435 57.5936 12.1713 57.5902 12.7992C57.5355 12.8572 57.4773 12.9152 57.4225 12.9732C57.0461 12.9391 57.1317 13.369 56.9058 13.485C56.5157 12.8333 55.9408 12.5501 55.1879 12.6286C54.9586 12.6286 54.7328 12.6286 54.5035 12.6286C53.8841 12.7685 53.5522 13.4919 53.9217 13.8945C54.4967 14.5246 54.4613 15.0149 53.8157 15.3652C53.275 15.3754 52.7822 15.3583 53.0799 14.577C53.1655 14.3517 53.0491 14.1197 52.8027 14.205C52.3852 14.3449 52.4776 13.9013 52.2723 13.8229C52.2415 13.6454 52.1868 13.5703 51.9575 13.5396C51.5947 13.4919 50.9959 13.3895 50.9343 13.1814C50.6776 12.2976 50.0137 12.3351 49.3464 12.2874C48.597 11.7755 48.7476 10.9634 48.6586 10.2298C48.7989 10.0353 48.946 10.1001 49.0863 10.2264C49.2677 10.3833 49.4457 10.4106 49.5962 10.1991C49.7331 10.008 49.6886 9.81351 49.5312 9.65655C49.2917 9.4211 49.1035 9.0287 48.7373 9.056C47.916 9.11742 47.5669 8.78643 47.6183 7.98115C47.632 7.77983 47.4882 7.65017 47.2863 7.69794C47.0742 7.74912 46.8757 7.93338 47.0468 8.13129C47.4609 8.60559 47.3719 9.35968 47.9742 9.71455C48.2548 10.3117 48.6791 10.9122 47.916 11.4787C47.8955 11.4923 47.9126 11.6015 47.9434 11.6288C48.4362 12.086 48.3301 12.8572 48.8297 13.3076C48.5628 13.3451 48.3232 13.4339 48.1487 13.6522C48.1316 14.0208 48.2171 14.3142 48.662 14.3381C48.6038 14.5087 48.5457 14.6793 48.4875 14.8499C48.3746 14.8499 48.2616 14.8499 48.1453 14.8499C48.0152 14.6213 47.9673 14.3756 47.9571 14.1129C47.9502 13.9559 47.8578 13.8467 47.6799 13.8672C47.5498 13.8843 47.478 13.9866 47.478 14.1061C47.478 14.5462 47.2966 14.9318 47.1426 15.3276C47.4677 16.4468 47.7962 17.5695 48.1213 18.6887C48.0837 18.5556 48.0426 18.4191 48.005 18.286C48.0495 18.286 48.0939 18.286 48.1418 18.2792C48.2308 18.5419 48.2514 18.7774 48.2069 18.9821C48.3677 19.5349 48.5285 20.0843 48.6894 20.637C51.5468 30.4608 54.2982 40.421 57.5731 50.1765C57.7408 50.2379 57.8195 50.3744 57.8777 50.5246C57.8195 50.371 57.7374 50.2379 57.5731 50.1765C58.8051 53.8446 60.1123 57.4855 61.5256 61.0819C61.5325 61.0887 61.5427 61.0956 61.5496 61.1024C61.5461 61.1024 61.5427 61.1024 61.5359 61.1058C62.6036 63.8185 63.7363 66.5073 64.9443 69.1586C65.0093 69.1586 65.0709 69.1586 65.1359 69.1552C65.437 69.145 65.704 69.1859 65.8443 69.4998C65.7245 69.5544 65.6082 69.6363 65.4781 69.6636C65.3857 69.6807 65.2762 69.6841 65.1872 69.7046C65.6184 70.6395 66.0599 71.5711 66.5116 72.4992C66.1317 71.7144 65.7553 70.9296 65.3891 70.1379C65.4336 70.1277 65.4781 70.1175 65.5226 70.1106C65.6218 70.097 65.7348 70.1584 65.8443 70.1891C66.2139 70.4177 66.6245 70.4996 67.0488 70.5303C67.22 70.5883 67.3911 70.6463 67.5622 70.7044C67.9454 70.9534 67.8736 71.2503 67.6374 71.5438C67.3226 71.9362 66.953 72.2637 66.5116 72.5026C67.4663 74.468 68.469 76.4164 69.523 78.3341C69.1808 77.7062 68.842 77.0784 68.5067 76.4437C68.5922 76.3584 68.6778 76.2697 68.7633 76.1844V76.1673ZM67.3534 63.4364C67.3329 63.4602 67.3089 63.4841 67.2884 63.5012C67.3089 63.4841 67.3329 63.4568 67.3534 63.4364ZM65.8409 60.5803C65.7177 60.7305 65.6287 60.9386 65.5226 61.1195C65.6287 60.942 65.7142 60.7305 65.8409 60.5803ZM58.6271 13.4612C58.6648 13.526 58.7024 13.5874 58.7366 13.6522C58.7024 13.5874 58.6648 13.5226 58.6271 13.4612ZM58.9659 17.5729C58.9522 17.3852 58.9864 17.2487 59.0754 17.1634C58.9899 17.2487 58.9522 17.3852 58.9659 17.5729C58.7948 17.6309 58.6237 17.6889 58.456 17.7469C58.6271 17.6889 58.7982 17.6309 58.9659 17.5729ZM58.2849 18.2655C58.302 18.2655 58.3225 18.2655 58.3397 18.2655C58.3225 18.2655 58.302 18.2655 58.2849 18.2655C58.2849 18.4942 58.2849 18.7228 58.2849 18.948C58.2849 18.7194 58.2849 18.4908 58.2849 18.2655ZM57.7716 14.3244H57.8537H57.7716C57.7716 14.3517 57.7716 14.379 57.7716 14.4098C57.7716 14.3825 57.7716 14.3552 57.7716 14.3244ZM56.9092 15.1468C56.899 15.2082 56.8955 15.2765 56.9024 15.3549C56.8955 15.2765 56.899 15.2082 56.9092 15.1468ZM51.9232 27.0076V27.0008V27.0076ZM51.8137 25.1173C52.0088 24.6054 52.44 24.3256 52.8985 24.3325C52.44 24.3256 52.0088 24.6054 51.8137 25.1173ZM53.6411 24.6088C53.6685 24.387 53.7746 24.2813 53.9389 24.2744C53.7746 24.2779 53.6685 24.387 53.6411 24.6088ZM53.9868 20.3265C53.9081 20.4596 53.737 20.5313 53.6685 20.6712C53.737 20.5313 53.9081 20.4596 53.9868 20.3265C54.394 20.3914 54.7944 20.347 55.1913 20.2856C54.7944 20.3436 54.394 20.3879 53.9868 20.3265ZM55.1366 22.5479C54.9244 22.541 54.7122 22.5513 54.5001 22.5479C54.7122 22.5479 54.9244 22.5376 55.1366 22.5479ZM54.1408 28.0006C54.1545 27.9801 54.175 27.9596 54.1989 27.946C54.175 27.9596 54.1579 27.9767 54.1408 28.0006ZM56.0469 21.5208C56.0503 21.5754 56.0605 21.6197 56.0777 21.6607C56.064 21.6232 56.0537 21.5788 56.0469 21.5208ZM56.7518 24.66C57.0153 24.4996 57.3062 24.817 57.3712 25.1002C57.4636 25.5028 57.1145 25.4517 56.8682 25.4619C55.9408 25.5063 55.3967 26.2433 54.6746 26.663C54.3187 26.6937 53.9012 27.0656 53.6446 26.4924C53.8157 26.2092 53.9868 25.926 54.1613 25.6393C54.6027 25.4209 54.743 24.9569 55.0202 24.6088C55.5883 24.8204 56.129 25.0422 56.7518 24.66ZM51.4134 18.443C51.9096 18.4362 52.3476 18.46 52.3202 17.6991C52.3031 17.2624 52.6248 16.8665 53.2305 17.0133C53.4735 17.0713 53.7335 17.0542 53.9868 17.0679C54.1613 17.3408 54.329 17.1122 54.5001 17.0644C54.8012 17.0508 55.0955 17.0747 55.3624 17.2385C55.3624 17.3511 55.3624 17.4637 55.3624 17.5797C55.3693 17.8595 55.383 18.1393 55.3898 18.4157C55.3796 18.1359 55.3693 17.8561 55.3624 17.5797C54.8354 17.9073 54.4008 18.3884 54.5719 18.9855C54.7602 19.6373 54.4111 19.7806 53.9902 19.9751C53.9217 19.6577 54.1305 19.0367 53.4803 19.2926C53.2134 19.3984 52.7993 19.6884 52.7856 20.1491C52.3681 20.2583 52.1354 19.8113 51.7556 19.8079C51.9746 19.1118 51.4886 19.4666 51.2423 19.4666C50.924 19.064 51.1841 18.7535 51.4134 18.443ZM48.4875 17.7537C48.3574 17.8083 48.2685 17.8902 48.2103 17.9926C48.265 17.8902 48.3574 17.8083 48.4875 17.7537C48.4875 17.6991 48.4875 17.6445 48.4875 17.5865C48.4875 17.6411 48.4875 17.6991 48.4875 17.7537ZM50.0343 18.9548C49.9898 19.0504 49.9316 19.122 49.8563 19.1766C49.9316 19.122 49.9898 19.0469 50.0343 18.9548ZM49.6955 16.0408C49.7742 16.0886 49.8289 16.1636 49.8803 16.2421C49.8289 16.1636 49.7776 16.0886 49.6955 16.0408C49.6339 15.935 49.586 15.8258 49.5552 15.7132C49.586 15.8258 49.6373 15.935 49.6955 16.0408ZM50.0343 21.8654C49.8563 21.8484 49.7092 21.8757 49.586 21.9507C49.7092 21.8757 49.8563 21.8484 50.0343 21.8654C50.1096 21.8177 50.1848 21.7665 50.2601 21.7187C50.1848 21.7665 50.1096 21.8177 50.0343 21.8654ZM54.5001 39.6874C54.4453 39.6874 54.3872 39.684 54.3324 39.684C54.3872 39.684 54.4453 39.684 54.5001 39.6874C54.5001 39.7386 54.5001 39.7863 54.5001 39.8341C54.5001 39.7863 54.5001 39.7386 54.5001 39.6874ZM54.5411 40.032C54.5617 40.0798 54.5959 40.1207 54.6438 40.148C54.5959 40.1207 54.5617 40.0798 54.5411 40.032ZM54.6609 41.0557C54.6609 41.0557 54.6712 41.0557 54.6746 41.0523C54.6712 41.0523 54.6643 41.0523 54.6609 41.0557ZM54.8491 40.5438C54.9415 40.537 55.0408 40.5438 55.1332 40.5268C55.0442 40.5438 54.9449 40.537 54.8491 40.5438ZM54.7088 38.2065C54.7704 38.2577 54.8218 38.343 54.8491 38.4829C54.8868 38.517 54.9244 38.5443 54.9655 38.5614C54.9244 38.5409 54.8868 38.517 54.8491 38.4829C54.8218 38.3464 54.7704 38.2611 54.7088 38.2065ZM54.8491 36.0807C54.7944 35.9101 54.7362 35.7429 54.6814 35.5723C54.7362 35.7429 54.7944 35.9101 54.8491 36.0807C54.9655 36.1626 55.0921 36.2069 55.2187 36.2308C55.0921 36.2069 54.9689 36.1626 54.8491 36.0807ZM55.8758 39.1721C55.8758 39.1141 55.8758 39.0561 55.8758 38.9947C55.8758 39.0527 55.8758 39.1107 55.8758 39.1721ZM55.9921 36.0295C56.0126 35.992 56.0332 35.9544 56.0537 35.9169C56.0332 35.9544 56.0126 35.992 55.9921 36.0295ZM57.9324 38.4761C58.1993 38.169 58.4731 37.9676 58.7674 37.9165C58.4731 37.9642 58.1993 38.1655 57.9324 38.4761C57.8195 38.4761 57.71 38.4761 57.5971 38.4761C57.71 38.4761 57.8195 38.4761 57.9324 38.4761ZM57.248 38.9981C57.556 39.1346 57.7305 39.353 57.8537 39.6055C57.7305 39.353 57.556 39.1346 57.248 38.9981ZM57.3028 45.7714C57.4465 45.6144 57.5902 45.4643 57.7613 45.3448C57.5902 45.4643 57.4465 45.6178 57.3028 45.7714ZM57.8777 45.3209C57.9324 45.3039 57.9838 45.2834 58.018 45.2459C57.9803 45.2834 57.9324 45.3039 57.8777 45.3209ZM57.5936 42.6014C57.7511 42.5809 57.9153 42.6014 58.0933 42.5912C57.9153 42.6014 57.7511 42.5809 57.5936 42.6014ZM58.1138 44.99C58.1822 44.9934 58.2507 45.0036 58.3089 45.0275C58.2507 45.0002 58.1822 44.9934 58.1138 44.99ZM58.6237 41.7347C58.5587 41.6358 58.5176 41.5334 58.4902 41.4276C58.5176 41.5334 58.5587 41.6358 58.6237 41.7347C58.699 41.6392 58.7811 41.5641 58.8667 41.5095C58.7811 41.5641 58.699 41.6392 58.6237 41.7347ZM59.8351 54.5714C59.8522 54.4725 59.8488 54.3633 59.8248 54.2439C59.5237 54.1893 59.2841 53.9095 59.2397 53.7116C59.2876 53.9061 59.5271 54.1859 59.8248 54.2439C59.8488 54.3633 59.8522 54.4725 59.8351 54.5714ZM60.345 47.7334C60.2834 47.6617 60.2184 47.6208 60.1499 47.5935C60.2184 47.6208 60.2868 47.6617 60.345 47.7334ZM61.0294 52.1897C61.0636 52.2716 61.1081 52.3399 61.1663 52.3979C61.1081 52.3399 61.0636 52.2716 61.0294 52.1897C60.9575 52.1897 60.8925 52.1795 60.8309 52.1522C60.8891 52.1761 60.9575 52.1863 61.0294 52.1897ZM60.7146 58.9868C60.9918 58.9459 61.2655 58.9084 61.5427 58.8674C61.2655 58.9084 60.9918 58.9459 60.7146 58.9868ZM61.5427 37.797C61.6043 37.9165 61.6522 38.0495 61.7001 38.1792C61.6522 38.0495 61.6077 37.9165 61.5427 37.797ZM62.234 52.0191C62.4735 51.8621 62.7336 51.8417 63.0005 51.8417C62.737 51.8417 62.4735 51.8621 62.234 52.0191ZM64.4652 48.5933C64.4652 48.6342 64.4618 48.6717 64.4515 48.7059C64.4583 48.6717 64.4652 48.6342 64.4652 48.5933ZM64.123 63.6684L64.1298 63.665H64.123V63.6684ZM63.7808 48.5967C63.8389 48.5967 63.8971 48.5967 63.9553 48.5967C63.8971 48.5967 63.8389 48.5967 63.7808 48.5967C63.7226 48.3817 63.6576 48.1701 63.6097 47.9552C63.6576 48.1701 63.7226 48.3851 63.7808 48.5967ZM63.6097 52.0191C63.7808 51.9065 63.9553 51.7939 64.1264 51.6813C63.9553 51.7939 63.7808 51.9065 63.6097 52.0191C63.4967 51.9645 63.3838 51.9065 63.2709 51.8519C63.3838 51.9065 63.4967 51.9645 63.6097 52.0191ZM63.6097 58.086C63.7329 58.0758 63.8526 58.0587 63.9656 58.0246C63.8526 58.0621 63.7329 58.0758 63.6097 58.086ZM63.7842 61.7883C63.7294 61.7883 63.6747 61.7883 63.6199 61.7917C63.6747 61.7917 63.7294 61.7917 63.7842 61.7883ZM63.4454 64.1836C63.5002 64.1836 63.5549 64.1904 63.6062 64.1939C63.7534 64.286 63.88 64.4122 64.01 64.5317C63.88 64.4122 63.75 64.286 63.6062 64.1939C63.5515 64.187 63.4967 64.1836 63.4454 64.1836ZM66.9736 73.4409C67.0044 73.4409 67.0283 73.4409 67.0625 73.4409C67.2884 73.4307 67.5143 73.4375 67.7367 73.4375C67.8496 73.4375 67.966 73.4375 68.0789 73.4375C68.6435 73.3556 69.1158 73.6116 69.5983 73.8334C69.7455 74.4919 69.8926 75.147 70.0432 75.8056C69.766 75.6828 69.4238 75.7135 69.1124 75.6657C68.6059 75.6077 68.2124 75.2699 67.7778 75.0344C67.5074 74.5055 67.2405 73.9733 66.9736 73.4375V73.4409Z" fill="#FDC333"/>
<path d="M47.365 26.7961C47.0194 26.7995 46.6327 26.994 46.7114 27.284C46.8175 27.6764 46.927 28.3964 47.3479 28.3418C48.0426 28.2531 47.2384 27.4103 47.7688 27.1202C47.7586 26.8029 47.5635 26.7927 47.365 26.7927V26.7961Z" fill="#FDC333"/>
<path d="M66.7032 64.8593C66.5492 65.0708 66.1215 65.3404 66.8161 65.3711C67.0078 65.3779 67.1994 65.3711 67.3911 65.3711C67.5211 65.3608 67.6443 65.3677 67.7641 65.3847C67.8325 65.7157 67.9044 66.0433 67.9728 66.3743C67.8838 65.9614 67.7983 65.5485 67.7127 65.1356C67.6066 65.1083 67.5006 65.0742 67.3911 65.0299C67.1618 64.9719 66.9325 64.9138 66.7032 64.8593Z" fill="#FDC333"/>
<path d="M48.7441 31.0579C48.7578 31.5561 49.059 32.027 48.508 32.2727C47.9913 32.2147 47.9708 31.8871 48.0392 31.4708C48.2377 30.2936 47.3822 29.5327 46.9065 28.3828C46.7833 29.0447 46.5985 29.4132 46.2734 29.7033C45.4863 29.6623 44.5829 29.9319 44.2201 28.8297C44.162 28.6489 43.9532 28.8775 43.8677 29.0174C43.7034 29.0823 43.5905 29.1983 43.5255 29.3621C42.5947 29.3552 41.6502 29.4678 40.7775 29.0174C40.3772 28.7206 39.9289 28.2633 39.4498 28.6318C39.0596 28.9321 39.8707 29.1403 39.7475 29.5293C39.5285 30.4847 40.1958 31.3309 40.0897 32.2727C40.1992 32.7743 39.9665 32.9688 39.2992 32.8357C39.7714 33.3168 40.4627 33.327 40.4353 33.9856C40.3874 34.2756 40.5414 34.6032 40.2642 34.8455C39.7851 34.6339 39.8536 34.0607 39.573 33.6853C39.484 33.8082 39.419 33.9276 39.3745 34.047C39.7646 34.6544 40.1581 35.2618 40.5483 35.8691C40.4593 35.7292 40.3703 35.5927 40.2813 35.4528C40.3943 35.4972 40.5003 35.5757 40.5996 35.7019V35.9544C43.3099 40.1515 46.0202 44.3519 48.727 48.5489C48.9563 48.2964 49.2609 48.0746 49.1959 47.6924C49.1377 47.6924 49.0795 47.6924 49.0213 47.6924C49.0795 47.6924 49.1377 47.6924 49.1959 47.6924C49.7913 47.6788 50.308 47.2523 50.8111 47.2011C51.6358 47.1158 51.629 46.7131 51.5982 46.1501C51.9951 46.2627 52.1012 45.57 52.5392 45.8089C53.0765 46.1058 53.21 45.9386 53.0252 45.396C52.967 45.222 52.9773 45.0684 53.1415 44.9524C53.8773 45.4506 53.9115 44.4815 54.37 44.3382C54.3803 44.3382 54.3872 44.3314 54.3974 44.328C54.3974 44.328 54.3974 44.328 54.3974 44.3314C54.3598 44.2052 54.3187 44.0823 54.2811 43.9561C54.2263 43.8844 54.175 43.8128 54.1647 43.7411C54.1647 43.6899 54.1647 43.6421 54.1647 43.591C53.5248 41.5334 52.902 39.4724 52.286 37.408C52.286 37.408 52.2826 37.408 52.2792 37.408C52.1765 37.3364 52.1696 37.234 52.2004 37.118C52.1286 36.8723 52.0533 36.6266 51.9814 36.381C51.9677 36.381 51.9541 36.3741 51.9369 36.3741C51.824 36.2615 51.7077 36.1489 51.5947 36.0329C51.5331 35.9203 51.475 35.8077 51.4134 35.6951C51.5229 35.6269 51.5982 35.5109 51.7008 35.4324C51.7522 35.6064 51.8035 35.7804 51.8548 35.9544C51.6563 35.2822 51.4613 34.61 51.2628 33.9412C50.7837 34.1596 51.1225 34.3268 51.4271 34.5043C51.4579 34.6032 51.4852 34.7056 51.516 34.8045C51.2628 34.9137 51.0712 35.1321 50.794 35.4528C50.9103 34.9205 50.7871 34.6066 50.4449 34.7158C50.1369 34.8113 49.9042 35.2822 50.0343 35.5143C50.3149 36.0227 50.0137 36.1694 49.6989 36.3741C49.562 36.2991 49.5346 36.1728 49.5312 36.0329C49.473 35.9169 49.4149 35.8009 49.3601 35.6849C49.3601 35.5723 49.3601 35.4597 49.3601 35.3505C49.0864 35.0127 48.9632 34.5827 48.4259 34.4394C48.0152 34.3268 47.9879 33.815 48.3609 33.6137C48.6209 33.4704 48.6415 33.3441 48.6825 33.1189C48.8126 32.4194 49.2232 32.1908 49.8769 32.433C50.1848 32.5491 50.5613 32.8152 50.7084 32.3102C50.7255 32.2556 50.7358 32.201 50.7426 32.1464C50.7597 32.2112 50.7803 32.2727 50.7974 32.3375C50.7118 32.044 50.6229 31.7472 50.5373 31.4537C50.4381 31.365 50.3115 31.2934 50.1369 31.2592C49.6989 31.1705 49.2403 31.3002 48.7407 31.0477L48.7441 31.0579ZM41.2874 35.5245C41.1813 35.5859 41.0718 35.6371 40.9589 35.6678C41.0718 35.6371 41.1813 35.5859 41.2874 35.5245C41.2874 35.4699 41.2908 35.4153 41.2943 35.3573C41.2943 35.4119 41.2908 35.4665 41.2874 35.5245ZM43.8711 35.7019C43.8711 35.7565 43.8677 35.8111 43.8643 35.8691C43.522 36.2206 43.1764 35.4017 42.8342 35.8691C42.6973 35.8862 42.5125 35.8521 42.4338 35.9271C41.7939 36.5277 41.5749 36.166 41.462 35.5279C41.8042 35.3505 41.8931 35.1116 41.6536 34.7806C41.2224 34.1869 41.1197 33.5011 41.1197 32.7913C41.2361 32.5491 40.5551 32.085 41.3388 32.0168C41.4483 32.0065 41.4927 31.7915 41.4175 31.7404C40.7467 31.3104 41.0855 30.6143 40.9486 30.0479C40.9007 30.1366 40.8528 30.2253 40.7844 30.2799C40.8528 30.2253 40.9007 30.1332 40.9486 30.0479C40.8905 29.9353 40.8323 29.8193 40.7741 29.7067C40.9418 29.7203 41.2498 29.7135 41.2532 29.751C41.4209 30.8054 41.8315 30.0104 42.1464 29.8773C42.1019 30.3823 42.4133 30.4335 42.7966 30.3755C42.9882 30.3448 43.2038 30.2253 43.2825 30.512C43.3373 30.7201 43.0669 30.7474 43.0053 30.901C42.7863 30.9487 42.5639 30.9897 42.3517 31.0511C41.9376 31.1705 41.7186 31.348 42.1635 31.7267C42.3859 31.9144 42.3038 32.1976 42.3209 32.4467C42.4749 32.9688 42.93 33.0268 43.3646 33.1428C43.7719 33.252 43.6931 33.3816 43.3475 33.4772C42.9129 33.5079 42.2798 33.426 42.9403 34.1221C43.1456 34.3371 42.9882 34.4019 42.8582 34.5008C42.5981 34.6987 42.6015 34.9581 42.7829 35.1696C42.9916 35.4187 43.2688 35.4494 43.5186 35.1867C43.635 35.173 43.7479 34.9956 43.8643 35.1867C43.8643 35.3607 43.8643 35.5313 43.8643 35.7053L43.8711 35.7019ZM46.6156 31.2456C46.4582 31.1091 46.4377 30.9453 46.4411 30.7781C46.4342 30.9453 46.4582 31.1091 46.6156 31.2456ZM45.7259 39.3769C45.6711 39.3701 45.6232 39.3462 45.5924 39.2916C45.5719 39.2029 45.5479 39.1176 45.5274 39.0288C45.5479 39.1176 45.5719 39.2029 45.5924 39.2916C45.6232 39.3462 45.6711 39.3701 45.7259 39.3769C45.743 39.3769 45.7635 39.3769 45.784 39.3769C45.7635 39.3769 45.7464 39.3769 45.7259 39.3769ZM46.3418 43.2702C46.1742 43.3043 46.116 43.4169 46.116 43.5739C46.116 43.4169 46.1742 43.3043 46.3418 43.2702C46.4274 43.277 46.4924 43.3009 46.5335 43.3453C46.4924 43.3009 46.4274 43.277 46.3418 43.2702ZM47.3034 36.5584C46.9031 36.9133 46.2802 36.944 46.0167 37.5309C45.8662 37.8687 45.743 37.4319 45.589 37.4149C45.3802 36.8007 46.1502 36.0978 45.4179 35.5279C45.3939 35.0843 45.0996 34.999 44.73 35.0161C44.73 34.6851 44.6719 34.3302 45.0757 34.1596C45.2639 34.924 45.8217 34.4838 46.205 34.4599C46.4137 34.4497 46.6053 34.2517 46.7936 34.5008C46.9202 34.9751 46.4377 35.6746 47.3103 35.8691C47.4506 35.9442 47.478 36.0739 47.478 36.2172C47.3411 36.2922 47.3137 36.4219 47.3069 36.5618L47.3034 36.5584ZM47.4848 32.6139C47.4609 32.3341 47.4711 32.0543 47.4814 31.7711C47.4711 32.0509 47.4609 32.3341 47.4848 32.6139C47.5396 32.6139 47.5943 32.6173 47.6525 32.6207C47.5977 32.6207 47.543 32.6173 47.4848 32.6139ZM54.1716 43.5841C53.9252 43.5773 53.7609 43.5227 53.6514 43.4374C53.7609 43.5227 53.9252 43.5773 54.1716 43.5841ZM53.4871 41.5232C53.4871 41.4856 53.494 41.4481 53.494 41.4106C53.494 41.4481 53.4906 41.4856 53.4871 41.5232C53.2031 41.5232 52.9191 41.5232 52.635 41.5232C52.9191 41.5232 53.2031 41.5232 53.4871 41.5232ZM52.2107 44.8671C52.0054 44.9763 51.8411 45.1503 51.7727 45.4677C51.8411 45.1503 52.0054 44.9797 52.2107 44.8671ZM50.7324 38.128C50.5955 38.169 50.4826 38.2611 50.397 38.4351C50.3423 38.4351 50.2875 38.4351 50.2327 38.4351C50.2875 38.4351 50.3423 38.4351 50.397 38.4351C50.4826 38.2645 50.5955 38.1724 50.7324 38.128ZM49.716 36.555C49.7708 36.555 49.8255 36.5618 49.8837 36.5652C50.1335 36.5618 50.3183 36.4356 50.4826 36.2786C50.3149 36.4321 50.1335 36.5584 49.8837 36.5652C49.8289 36.5584 49.7742 36.555 49.716 36.555C49.716 36.5175 49.716 36.4799 49.7126 36.4458C49.7126 36.4833 49.7126 36.5209 49.716 36.555ZM48.4464 47.457C48.419 47.6003 48.3917 47.7402 48.3335 47.863C48.3882 47.7368 48.419 47.5969 48.4464 47.457Z" fill="#FDC333"/>
<path d="M32.0238 18.9753C31.5892 16.9962 30.3162 15.3174 30.1964 13.2462C30.0972 11.5128 30.8192 9.82375 31.8972 8.49981C32.1915 8.14153 32.5097 7.81055 32.8485 7.50345C32.4858 7.82761 32.147 8.17907 31.8356 8.55782C30.7542 9.88517 30.0322 11.5742 30.1348 13.3042C30.2546 15.3754 31.5276 17.0542 31.9622 19.0333C32.1915 20.0774 31.9999 21.2205 31.4078 21.8347C31.4249 21.8177 31.4455 21.8006 31.4626 21.7835C32.0615 21.1728 32.2531 20.0228 32.0238 18.9753Z" fill="#FDC333"/>
<path d="M60.499 23.3088C60.4887 23.244 60.4819 23.1791 60.4716 23.1143C60.434 23.1143 60.3998 23.1041 60.3587 23.1041C60.3895 23.1757 60.4374 23.2406 60.4956 23.3054L60.499 23.3088Z" fill="#FDC333"/>
<path d="M88.1083 106.256C86.3323 104.594 84.741 102.677 83.1976 100.807C80.0904 97.0432 77.2843 93.0441 74.6116 88.9631C73.2257 86.8475 71.874 84.7081 70.5325 82.5652C70.1903 82.0192 69.7215 81.4016 69.345 80.7533C68.5409 80.8796 67.699 80.7977 66.8811 80.6168C66.2925 80.4872 65.7211 80.3097 65.1872 80.1255C63.1956 79.4464 61.31 78.4876 59.51 77.4025C57.0735 75.9353 54.7636 74.2803 52.3715 72.7551C49.8015 71.3936 47.2213 70.0458 44.6376 68.7116C38.0159 65.9341 30.9253 64.3338 24.023 62.4093C19.937 61.2696 15.8784 60.0105 11.967 58.3556C8.52439 56.8986 4.93463 55.1447 2.50495 52.2136C1.26274 50.7122 0.526989 49.0505 0.225845 47.3068C0.143716 46.836 0.0923843 46.3583 0.0752739 45.8771C0.0170985 44.3962 0.246378 42.871 0.735736 41.3525C1.53992 38.8548 2.69317 36.4287 3.94565 34.0607C4.14071 33.6887 4.34261 33.3202 4.54109 32.9517C5.33501 31.4913 6.15289 30.0513 6.93313 28.6284C8.03504 26.6186 9.15063 24.6123 10.3381 22.6536C11.156 21.3058 12.0628 19.9614 13.2161 18.8729C12.0354 19.9751 11.1081 21.3399 10.2799 22.7117C9.09246 24.6703 7.97686 26.6801 6.87495 28.6864C6.09472 30.1093 5.27684 31.5493 4.48291 33.0097C4.28101 33.3782 4.08253 33.7467 3.88747 34.1187C2.63499 36.4867 1.48175 38.9128 0.67756 41.4106C0.188203 42.929 -0.0410769 44.4542 0.0170985 45.9351C0.0342089 46.4163 0.0855401 46.894 0.16767 47.3649C0.468813 49.1085 1.20456 50.7702 2.44678 52.2716C4.87645 55.2027 8.46964 56.9566 11.9088 58.4136C15.8203 60.0685 19.8789 61.3276 23.9648 62.4673C30.8672 64.3918 37.9543 65.9921 44.5794 68.7696C47.1631 70.1038 49.7434 71.4516 52.3133 72.8131C54.7054 74.3418 57.0153 75.9967 59.4518 77.4605C61.2518 78.5422 63.1374 79.5044 65.129 80.1835C65.6629 80.3643 66.2378 80.5417 66.823 80.6748C67.6409 80.8557 68.4861 80.941 69.2869 80.8113C69.6633 81.4596 70.1356 82.0807 70.4743 82.6232C71.8158 84.7661 73.1675 86.9055 74.5535 89.0211C77.2261 93.0987 80.0322 97.0978 83.1395 100.865C84.6828 102.738 86.2775 104.652 88.0501 106.314C88.7996 107.017 89.9836 107.283 90.5791 106.618C89.9665 107.205 88.8372 106.935 88.1117 106.256H88.1083Z" fill="#FDC333"/>
<path d="M57.3404 29.6657C57.3849 29.7442 57.4978 29.7988 57.5902 29.8329C57.6142 29.8432 57.6826 29.7374 57.7545 29.6589C57.645 29.5804 57.5697 29.4849 57.4773 29.4644C57.3199 29.4337 57.2857 29.5634 57.3438 29.6657H57.3404Z" fill="#FDC333"/>
<path d="M30.7782 47.8084C30.8227 47.8869 30.9356 47.9415 31.028 47.9756C31.052 47.9859 31.1204 47.8801 31.1923 47.7982C31.0828 47.7163 31.0041 47.6208 30.9117 47.6037C30.7543 47.573 30.7166 47.7027 30.7782 47.8084Z" fill="#FDC333"/>
<path d="M65.1872 69.6909C65.1085 69.5169 65.0298 69.3429 64.9511 69.1654C65.0298 69.3395 65.1085 69.5169 65.1872 69.6909Z" fill="#FDC333"/>
<path d="M61.5085 30.3959C61.5461 30.6382 61.5803 30.8805 61.618 31.1227C61.5803 30.8805 61.5461 30.6382 61.5085 30.3959Z" fill="#FDC333"/>
<path d="M38.252 56.2775C38.6798 56.1752 39.1486 56.6699 39.5661 56.1752C39.6414 56.0864 39.833 56.2127 39.8912 56.3628C39.9562 56.5232 39.8673 56.6529 39.7372 56.7177C39.484 56.8439 39.2034 56.9156 38.957 57.0521C38.9501 57.0555 38.9399 57.0623 38.9296 57.0657C39.2102 57.2671 39.4943 57.4684 39.7749 57.6731C39.7817 57.6663 39.7886 57.6595 39.7954 57.6526C40.2848 57.5435 40.7365 57.3831 40.8254 56.7962C41.2019 56.5983 41.5783 56.3901 42.03 56.4515C42.2593 56.4515 42.4852 56.455 42.7144 56.4584C42.7623 56.8917 42.6597 57.1579 42.1327 57.1681C41.8692 57.1749 41.4825 57.2091 41.6296 57.7345C41.7083 58.0075 41.438 58.376 41.0958 58.6285C41.3148 58.7855 41.5338 58.9459 41.7528 59.1028C41.6947 59.0619 41.6365 59.0175 41.5783 58.9766C41.6639 58.9766 41.7494 59.0448 41.8281 59.1574C42.0985 59.3519 42.3654 59.5498 42.6357 59.7443C43.0087 59.4679 43.3167 59.1267 43.4399 58.5876C43.5118 58.2805 43.7479 57.9734 44.0901 57.8301C44.2681 58.1576 44.5692 58.3146 44.8532 58.0689C45.4316 57.5639 45.9859 57.0282 46.6088 56.5778C42.8924 52.4013 39.2034 48.2042 35.5349 43.9868C35.5383 43.9902 35.5418 43.9936 35.5452 44.0004C35.5178 44.0277 35.4938 44.0584 35.463 44.0857C35.3022 44.2393 35.0421 44.4508 35.2303 44.659C35.5349 44.9934 35.8155 44.7954 36.0995 44.6453C37.6532 46.4299 39.2136 48.2077 40.7741 49.9854C40.733 49.9752 40.692 49.9649 40.6543 49.9581C40.2642 50.0537 39.9254 50.3164 39.5011 50.2925C39.6038 51.2309 38.7961 51.4288 38.2486 51.8417C37.6942 52.0089 37.5539 52.6538 37.0475 52.8756C36.2775 53.2065 36.4075 53.9811 36.1919 54.5851C36.1338 54.6977 36.0756 54.8103 36.014 54.9229C36.0037 54.9331 35.99 54.9468 35.9798 54.957C36.7018 55.4722 37.4205 55.9909 38.1425 56.5096C38.1733 56.4345 38.2076 56.3594 38.252 56.2912V56.2775ZM39.6243 51.4834C39.9186 51.7291 40.2232 51.8689 40.5175 51.9065C40.2232 51.8689 39.9152 51.7291 39.6243 51.4834C39.4053 51.5755 39.1794 51.6472 38.9501 51.7052C39.1794 51.6506 39.4053 51.5755 39.6243 51.4834Z" fill="#FDC333"/>
<path d="M70.6455 80.32C70.2793 79.6819 69.92 79.0404 69.5675 78.3955C69.92 79.0404 70.2793 79.6819 70.6455 80.32Z" fill="#FDC333"/>
<path d="M52.2757 66.0365C52.286 65.8795 52.1662 65.7976 52.0259 65.7567C51.8308 65.7601 51.7247 65.8761 51.6871 66.0535C51.6563 66.2071 51.7145 66.3367 51.8822 66.3538C52.1012 66.3743 52.2654 66.2753 52.2757 66.0399V66.0365Z" fill="#FDC333"/>
<path d="M58.2746 5.02276C58.2712 4.9784 58.2643 4.93404 58.2609 4.88968C58.2643 4.93404 58.2712 4.9784 58.2746 5.02276Z" fill="#FDC333"/>
<path d="M89.9768 103.39C89.0768 102.196 88.1734 101.001 87.27 99.8105C85.5658 97.555 83.8616 95.2996 82.1574 93.0475L71.7816 79.3168C71.5729 79.6034 71.3196 79.8627 71.0288 80.0777C70.9364 80.1459 70.844 80.2108 70.7447 80.2688C70.7105 80.2893 70.6763 80.3029 70.6421 80.3234C70.2314 80.5486 69.7934 80.6851 69.3417 80.7567C69.7181 81.405 70.1904 82.0261 70.5291 82.5686C71.8706 84.7115 73.2223 86.8509 74.6083 88.9665C77.2809 93.0441 80.087 97.0432 83.1943 100.81C84.7376 102.684 86.3323 104.598 88.1049 106.26C88.8304 106.939 89.9597 107.208 90.5723 106.621C90.7981 106.403 90.9555 106.068 90.9932 105.587C91.0548 104.731 90.4525 104.035 89.9734 103.393L89.9768 103.39Z" fill="#561F01"/>
<path d="M2.50155 52.217C4.93123 55.1481 8.52442 56.902 11.9636 58.359C15.875 60.0139 19.9336 61.273 24.0196 62.4127C30.9219 64.3372 38.0091 65.9375 44.6342 68.715C30.0322 61.1672 15.218 54.0323 0.219025 47.3102C0.520168 49.0539 1.25592 50.7156 2.49813 52.217H2.50155Z" fill="#FCB400"/>
<path d="M60.8754 16.7096C63.507 37.6196 67.2508 58.3897 72.0417 78.9175C72.4455 78.1634 72.5618 77.2728 72.2299 76.4437C72.1409 76.2185 71.9904 76.0615 71.8192 75.9591C70.2656 56.2809 69.393 36.5516 69.215 16.8119C69.1911 14.2835 69.2493 11.7482 69.1603 9.22318C69.0884 7.22363 68.8078 5.17289 67.7949 3.41219C66.9257 1.90059 65.5534 0.675605 63.839 0.228605C62.2716 -0.18086 60.6359 0.0306974 59.0412 0.293437C59.5819 5.77344 60.1876 11.2466 60.8754 16.7096Z" fill="#FCB400"/>
<path d="M25.0941 29.9285C37.5608 44.5976 50.3149 59.021 63.3359 73.2021C62.7644 72.3968 62.1998 71.5847 61.6454 70.7658C55.6499 61.9248 50.0035 52.8312 44.2133 43.8537L30.2581 22.2169C29.9638 22.1896 29.6387 22.0941 29.2759 21.903C27.404 20.9237 25.8128 19.4086 23.9785 18.3406C21.0424 16.6311 17.7127 15.9555 14.7937 17.665C18.2089 21.7699 21.6378 25.8611 25.0941 29.9285Z" fill="#FCB400"/>
<path d="M66.888 79.1939C64.8176 77.6345 62.7473 76.0752 60.6701 74.526C42.0505 60.6383 23.1333 47.1533 3.9388 34.0641C2.68632 36.4321 1.53308 38.8582 0.728891 41.3559C0.239533 42.8744 0.0102537 44.3996 0.0684291 45.8805C4.84908 48.0166 9.60919 50.1936 14.3522 52.4149C32.1573 60.7543 49.6818 69.6909 66.888 79.1939Z" fill="#FCB400"/>
<path d="M52.3681 72.7551C54.7601 74.2838 57.07 75.9387 59.5066 77.4025C61.3066 78.4842 63.1921 79.4464 65.1838 80.1255C65.7176 80.3063 66.2926 80.4837 66.8777 80.6168C64.7937 79.4635 62.7028 78.3136 60.6085 77.1739C57.8674 75.6862 55.1195 74.2121 52.3647 72.7551H52.3681Z" fill="#FCB400"/>
<path d="M44.6342 68.7116C47.2179 70.0458 49.7981 71.3936 52.3681 72.7551C51.143 71.9737 49.894 71.223 48.597 70.5508C47.3 69.8786 45.9757 69.2746 44.6342 68.7116Z" fill="#561F01"/>
<path d="M19.1808 24.8545C20.9363 26.9428 22.6987 29.0242 24.4645 31.0988C24.5055 31.1466 24.5466 31.1978 24.5911 31.2456C28.2185 35.5074 31.8664 39.7522 35.5383 43.9731C39.2068 48.1906 42.8992 52.3876 46.6122 56.5642C48.0597 58.1918 49.5141 59.816 50.9719 61.4368C51.1567 61.6415 51.3381 61.8463 51.5229 62.051C53.0936 63.798 54.6678 65.5417 56.2453 67.2785C57.0974 68.2168 57.9427 69.1586 58.7948 70.0936C60.2286 71.6666 61.6693 73.2294 63.11 74.7956C62.9629 74.6864 62.8157 74.5772 62.672 74.468C62.5762 74.3964 62.4838 74.3281 62.388 74.2564C62.2579 74.1609 62.1279 74.062 61.9979 73.9664C61.9705 73.9459 61.9431 73.9255 61.9157 73.905C61.7001 73.7446 61.4845 73.5842 61.2724 73.4239C61.1595 73.342 61.0499 73.2567 60.937 73.1748C58.5792 71.4175 56.2145 69.6636 53.843 67.9166C51.9814 66.5449 50.1164 65.1766 48.2514 63.8117C46.3829 62.4468 44.511 61.0853 42.6391 59.7273C42.3688 59.5328 42.1019 59.3349 41.8315 59.1404C41.8076 59.1233 41.7802 59.1028 41.7562 59.0858C41.5372 58.9288 41.3182 58.7684 41.0992 58.6115C40.6612 58.2941 40.2197 57.9768 39.7817 57.6629C39.5011 57.4616 39.2171 57.2568 38.9365 57.0555C38.673 56.8644 38.4095 56.6768 38.146 56.4857C37.4273 55.967 36.7053 55.4484 35.9832 54.9331C34.7684 54.063 33.5535 53.1963 32.3353 52.3296C31.8151 51.9577 31.2949 51.5892 30.7748 51.2172C29.7447 50.4836 28.7113 49.7534 27.6778 49.0232C26.8189 48.4158 25.9633 47.8118 25.1044 47.2079C24.3242 46.6585 23.5439 46.1091 22.7637 45.5598C21.0561 44.3621 19.3485 43.1644 17.6374 41.9736C13.2845 38.9435 8.91795 35.9374 4.53769 32.9483C4.33578 33.3168 4.1373 33.6853 3.94224 34.0572C23.1333 47.1465 42.054 60.6315 60.6735 74.5192C62.7507 76.0683 64.8211 77.6277 66.8914 79.1871C49.6818 69.6841 32.1607 60.7475 14.3556 52.4081C9.61606 50.1867 4.85252 48.0097 0.0718689 45.8737C0.0889793 46.3548 0.140311 46.8325 0.22244 47.3034C15.2214 54.0255 30.0322 61.1604 44.6342 68.7048C45.9757 69.2678 47.2966 69.8718 48.597 70.544C49.894 71.2162 51.143 71.9669 52.3681 72.7483C55.1229 74.2053 57.8742 75.6793 60.6119 77.1671C62.7062 78.3033 64.7937 79.4532 66.8812 80.61C67.6991 80.7908 68.5443 80.8761 69.3451 80.7465C69.7934 80.6748 70.2314 80.5383 70.6455 80.3131C70.2793 79.675 69.92 79.0335 69.5675 78.3886C69.5538 78.3613 69.5401 78.3374 69.5264 78.3102C68.4724 76.3891 67.4698 74.4441 66.515 72.4787C66.0633 71.5506 65.6218 70.6225 65.1907 69.6841C65.112 69.5101 65.0332 69.336 64.9545 69.1586C64.9545 69.1518 64.9477 69.145 64.9443 69.1381C63.7363 66.4869 62.607 63.798 61.5359 61.0853C61.5359 61.0853 61.529 61.0683 61.5256 61.058C60.1123 57.465 58.8051 53.8241 57.5731 50.1526C54.2982 40.3971 51.5468 30.4369 48.6894 20.6131C48.5285 20.0604 48.3677 19.511 48.2069 18.9582C48.1795 18.8593 48.1487 18.7637 48.1213 18.6648C47.7962 17.5456 47.4711 16.4229 47.1426 15.3037C45.9654 11.2603 44.7882 7.21681 43.611 3.17334C43.5665 3.18358 43.522 3.19381 43.4776 3.20405C43.1217 3.28935 42.7589 3.37807 42.3928 3.46679C45.103 12.7958 47.7962 22.1316 50.5373 31.4537C50.6229 31.7472 50.7118 32.044 50.7974 32.3375C50.9548 32.8698 51.1122 33.4055 51.2696 33.9378C51.4681 34.61 51.6632 35.2822 51.8617 35.951C51.9027 36.0909 51.9472 36.2342 51.9883 36.3741C52.0601 36.6198 52.1354 36.8655 52.2073 37.1112C52.2347 37.2067 52.2655 37.3057 52.2928 37.4012C52.9088 39.4656 53.5316 41.5266 54.1716 43.5841C54.2092 43.7035 54.2468 43.823 54.2845 43.9424C54.3221 44.0686 54.3632 44.1915 54.4008 44.3177C54.6096 44.9831 54.8183 45.6451 55.0305 46.3071C55.4377 47.5866 55.8552 48.8662 56.2796 50.1424C58.1549 55.7759 60.1978 61.3515 62.542 66.8144C63.8355 69.8274 65.2249 72.7994 66.7203 75.7169C62.542 70.2539 58.9214 64.3542 55.205 58.5876C55.1674 58.5262 55.1263 58.4648 55.0887 58.4033C54.0176 56.7416 52.9464 55.0798 51.8753 53.4215C51.5194 52.8687 51.1635 52.3194 50.8077 51.7666C50.5886 51.4254 50.3662 51.0841 50.1472 50.7429C49.781 50.1765 49.4149 49.6067 49.0487 49.0402C48.9426 48.873 48.8331 48.7058 48.727 48.542C46.0202 44.345 43.3099 40.1446 40.603 35.9476C40.5859 35.9203 40.5654 35.8896 40.5483 35.8623C40.1581 35.2549 39.7646 34.6475 39.3745 34.0402C38.7517 33.0745 38.1288 32.1123 37.5094 31.1466C35.4938 28.021 33.4782 24.8989 31.466 21.7733C31.4489 21.7903 31.4284 21.8074 31.4113 21.8245C31.117 22.0974 30.7337 22.2476 30.2615 22.2066L44.2167 43.8434C50.0069 52.821 55.6533 61.9111 61.6488 70.7555C62.2032 71.5745 62.7678 72.3866 63.3393 73.1918C50.3183 59.0107 37.5642 44.5873 25.0976 29.9182C21.6412 25.8509 18.2123 21.7596 14.7971 17.6547C14.472 17.8458 14.1537 18.0608 13.8389 18.3133C13.8149 18.3304 13.7944 18.3508 13.7705 18.3713C15.5671 20.5312 17.3705 22.6878 19.1808 24.8409V24.8545Z" fill="#DD9900"/>
<path d="M58.2609 4.8897C58.2644 4.93406 58.2712 4.97842 58.2746 5.02278C58.4286 6.4559 58.586 7.88903 58.7469 9.32216C59.1473 12.8572 59.5784 16.3888 60.0404 19.9171C60.1054 20.4152 60.1739 20.9168 60.2389 21.415C60.2697 21.6505 60.3039 21.8893 60.3347 22.1248C60.3792 22.4557 60.4237 22.7867 60.4682 23.1177C60.4784 23.1825 60.4853 23.2474 60.4956 23.3122C60.5674 23.8377 60.6393 24.3632 60.7111 24.8921C60.7351 25.0661 60.7591 25.2367 60.783 25.4107C61.0157 27.0759 61.2587 28.7376 61.5051 30.3994C61.5427 30.6416 61.5769 30.8839 61.6146 31.1262C61.8678 32.805 62.1245 34.4872 62.388 36.166C62.6001 37.5002 62.8157 38.8309 63.0347 40.1617C63.1169 40.6667 63.2058 41.1717 63.288 41.6801C63.9519 45.6349 64.6568 49.5862 65.3994 53.5273C66.0735 57.0999 66.7751 60.6656 67.5108 64.228C67.5177 64.2655 67.5279 64.3031 67.5348 64.3406C67.5895 64.6067 67.6477 64.8763 67.7025 65.1425C67.788 65.5553 67.877 65.9682 67.9625 66.3811C68.0207 66.6507 68.0755 66.9202 68.1336 67.1932C68.2124 67.5617 68.2876 67.9302 68.3663 68.2988C68.404 68.466 68.4416 68.6366 68.4759 68.8038C68.5272 69.0392 68.5785 69.2781 68.6298 69.5135C68.7086 69.8786 68.7907 70.2471 68.8694 70.6122C69.3348 72.7346 69.8105 74.857 70.2964 76.9726C70.5359 78.0065 70.7721 79.0438 71.015 80.0777C71.3059 79.8661 71.5557 79.6068 71.7679 79.3168C71.8603 79.1871 71.9493 79.0574 72.0245 78.9175C67.2336 58.3897 63.4933 37.623 60.8583 16.7096C60.1705 11.2466 59.5647 5.77346 59.0241 0.293457C58.61 0.361701 58.1993 0.433358 57.7921 0.498189C57.9358 1.96203 58.0864 3.42586 58.2438 4.8897H58.2609Z" fill="#DD9900"/>
<path d="M58.1754 70.8784C58.1207 70.8647 58.0659 70.8511 58.0112 70.8409C57.9632 70.8545 57.9153 70.875 57.8708 70.9023C58.0659 71.0456 58.2575 71.1923 58.4526 71.3356C58.3773 71.1821 58.3431 70.9262 58.1754 70.8818V70.8784Z" fill="#FCB400"/>
<path d="M56.478 67.9746C56.1393 68.1623 56.3514 68.4011 56.5636 68.5751C56.6765 68.6673 56.7963 68.7526 56.7039 68.9198C56.6286 69.0563 56.4815 69.1484 56.348 69.1006C56.0092 68.9744 55.732 69.0221 55.4925 69.145C56.1427 69.6261 56.7963 70.1038 57.4431 70.5849C57.5697 70.329 57.71 70.1175 58.1822 70.3256C58.2746 70.3904 58.3842 70.4416 58.456 70.5269C58.6648 70.7828 59.0378 71.1684 58.7503 71.38C58.6887 71.4243 58.6408 71.4448 58.6032 71.4482C59.2705 71.943 59.9378 72.4412 60.6017 72.9359C60.6153 72.9223 60.6325 72.9086 60.6461 72.8916C60.7249 72.9462 60.8275 72.9769 60.8412 73.0315C60.848 73.0656 60.848 73.0895 60.8412 73.1134C60.872 73.1373 60.9028 73.1611 60.9336 73.1816C61.0465 73.2635 61.156 73.3488 61.269 73.4307C61.3477 73.4307 61.4332 73.4409 61.4743 73.4717C61.5941 73.557 61.6694 73.6525 61.707 73.7583C61.7754 73.8095 61.8439 73.8606 61.9123 73.9118C61.9397 73.9323 61.9671 73.9528 61.9944 73.9732C61.9944 73.8538 62.0355 73.7685 62.104 73.7105C61.334 72.8745 60.564 72.0351 59.7975 71.1991C59.8317 71.2776 59.8693 71.3561 59.9104 71.4414C59.291 71.2025 59.1815 70.8033 59.0891 70.428C58.9899 70.3188 58.8906 70.2096 58.7914 70.1004C58.0933 69.3326 57.3986 68.5649 56.7039 67.7971C56.6526 67.862 56.5807 67.92 56.478 67.978V67.9746Z" fill="#FCB400"/>
<path d="M44.0935 57.8199C43.7479 57.9632 43.5118 58.2737 43.4433 58.5774C43.3167 59.1165 43.0122 59.4577 42.6392 59.7341C44.5145 61.0922 46.3829 62.4536 48.2514 63.8185C50.1198 65.1834 51.9814 66.5517 53.8431 67.9234C53.8567 67.9234 53.8704 67.9234 53.8841 67.9234C54.2366 67.9814 54.5617 68.0906 54.7431 68.4352C55.3933 68.64 55.8073 68.5103 55.886 67.7357C55.91 67.5105 56.0503 67.3638 56.2419 67.2785C54.6644 65.5383 53.0902 63.7946 51.5195 62.051C51.3347 61.8463 51.1533 61.6415 50.9685 61.4368C49.5107 59.816 48.0597 58.1918 46.6088 56.5642C45.9894 57.0146 45.435 57.5503 44.8532 58.0553C44.5692 58.3044 44.2681 58.1474 44.0901 57.8165L44.0935 57.8199ZM44.405 59.5499C44.073 59.7682 43.8985 59.4373 43.6692 59.3792C43.9875 59.137 44.2304 59.1745 44.405 59.5499ZM51.6871 66.0535C51.7248 65.8761 51.8309 65.7635 52.0259 65.7567C52.1697 65.801 52.286 65.8829 52.2757 66.0365C52.2621 66.2719 52.0978 66.3709 51.8822 66.3504C51.7145 66.3333 51.6563 66.2071 51.6871 66.0501V66.0535Z" fill="#FCB400"/>
<path d="M62.6206 74.2701C62.5727 74.2701 62.5248 74.2701 62.4735 74.2701C62.4461 74.2701 62.4153 74.2667 62.3845 74.2667C62.4803 74.3384 62.5727 74.4066 62.6686 74.4783C62.6925 74.4544 62.7165 74.4339 62.7404 74.4032C62.6994 74.3588 62.6617 74.3179 62.6206 74.2735V74.2701Z" fill="#FCB400"/>
<path d="M41.5783 58.9664C41.6365 59.0073 41.6947 59.0517 41.7528 59.0926C41.7768 59.1097 41.8042 59.1302 41.8281 59.1472C41.746 59.0346 41.6639 58.9664 41.5783 58.9664Z" fill="#FCB400"/>
<path d="M40.5209 51.9065C40.2266 51.869 39.9186 51.7291 39.6277 51.4834C39.4087 51.5755 39.1828 51.6472 38.9536 51.7052C39.1828 51.6506 39.4087 51.5755 39.6277 51.4834C39.922 51.7291 40.2266 51.869 40.5209 51.9065Z" fill="#FCB400"/>
<path d="M10.3347 22.6571C9.14723 24.6157 8.03163 26.6255 6.92972 28.6318C6.14949 30.0547 5.33161 31.4947 4.53769 32.9551C8.91795 35.9442 13.2845 38.9503 17.6374 41.9804C19.3485 43.1713 21.0561 44.3689 22.7637 45.5666C23.5439 46.116 24.3242 46.6653 25.1044 47.2147C25.9633 47.8187 26.8223 48.4261 27.6778 49.03C28.7113 49.7602 29.7413 50.4938 30.7748 51.2241C31.2949 51.5926 31.8151 51.9645 32.3353 52.3364C33.5501 53.2031 34.7684 54.0698 35.9832 54.94C35.9832 54.94 36.0072 54.9161 36.0174 54.9058C36.0756 54.7932 36.1338 54.6806 36.1954 54.568C36.411 53.9641 36.2843 53.1861 37.0509 52.8585C37.5574 52.6333 37.6977 51.9918 38.252 51.8246C38.7996 51.4151 39.6106 51.2138 39.5045 50.2755C39.9289 50.3028 40.2676 50.0366 40.6578 49.9411C40.6988 49.9479 40.7399 49.9581 40.7775 49.9684C39.2171 48.1906 37.6566 46.4128 36.103 44.6283C35.8155 44.7784 35.5383 44.9763 35.2338 44.6419C35.0455 44.4338 35.3056 44.2222 35.4665 44.0687C35.4938 44.0414 35.5212 44.0141 35.5486 43.9834C35.5452 43.9799 35.5417 43.9765 35.5383 43.9697C31.8664 39.7454 28.2151 35.504 24.5911 31.2422C24.55 31.1944 24.509 31.1432 24.4645 31.0954C22.6987 29.0174 20.9363 26.936 19.1808 24.8511C17.3705 22.7014 15.5671 20.5449 13.7705 18.3816C13.5788 18.5385 13.394 18.7023 13.2127 18.8729C12.0594 19.9648 11.1526 21.3058 10.3347 22.6536V22.6571ZM31.028 47.9756C30.9356 47.9415 30.8227 47.8869 30.7782 47.8084C30.72 47.7061 30.7577 47.573 30.9117 47.6037C31.0041 47.6242 31.0828 47.7197 31.1923 47.7982C31.1204 47.8801 31.052 47.9825 31.028 47.9756Z" fill="#FCB400"/>
<path d="M41.633 57.7277C41.4859 57.2056 41.8726 57.1681 42.1361 57.1613C42.6631 57.1476 42.7657 56.8849 42.7178 56.4516C42.4886 56.4516 42.2627 56.4481 42.0334 56.4447C41.5817 56.3833 41.2053 56.5915 40.8288 56.7894C40.7364 57.3763 40.2882 57.5366 39.7988 57.6458C39.7919 57.6527 39.7851 57.6595 39.7783 57.6663C40.2163 57.9836 40.6577 58.301 41.0958 58.6149C41.438 58.3658 41.7083 57.9973 41.6296 57.7209L41.633 57.7277Z" fill="#FCB400"/>
<path d="M39.7406 56.7143C39.8707 56.6495 39.9562 56.5232 39.8946 56.3594C39.8364 56.2127 39.6448 56.0865 39.5695 56.1718C39.152 56.6665 38.6832 56.1718 38.2554 56.2741C38.211 56.3424 38.1767 56.414 38.1459 56.4925C38.4094 56.6836 38.6729 56.8713 38.9364 57.0623C38.9364 57.0623 38.9535 57.0521 38.9638 57.0487C39.2102 56.9122 39.4908 56.8406 39.744 56.7143H39.7406Z" fill="#FCB400"/>
<path d="M52.286 37.4114C52.286 37.4114 52.2894 37.4114 52.2928 37.4114C52.2654 37.3159 52.2346 37.2169 52.2073 37.1214C52.1799 37.2374 52.1833 37.3398 52.286 37.4114Z" fill="#FCB400"/>
<path d="M54.1818 55.909C54.1818 55.6838 54.1818 55.4586 54.1784 55.23C53.778 54.8785 53.2339 54.8751 52.7685 54.6363C52.7685 54.6943 52.7651 54.7489 52.7582 54.8001C53.2442 55.5576 53.7335 56.3117 54.2195 57.0692C54.3872 56.9224 54.4932 56.7143 54.524 56.4311C53.9902 56.5335 53.9833 56.2878 54.1818 55.9124V55.909Z" fill="#FCB400"/>
<path d="M58.4799 56.7723C58.3328 56.6222 58.2233 56.414 58.0967 56.2298C58.2233 56.414 58.3328 56.6256 58.4799 56.7723Z" fill="#FCB400"/>
<path d="M51.8754 53.4318C51.8993 53.3465 51.9199 53.2611 51.9438 53.1758C51.9199 53.2611 51.8993 53.3465 51.8754 53.4318Z" fill="#FCB400"/>
<path d="M54.3495 49.4053C54.2503 49.3678 54.1031 49.2893 54.0244 49.2689C54.1065 49.2893 54.2537 49.3678 54.3495 49.4053Z" fill="#FCB400"/>
<path d="M56.3275 54.684C56.413 54.7216 56.4986 54.7454 56.5807 54.7489C56.4986 54.7454 56.413 54.7216 56.3275 54.684Z" fill="#FCB400"/>
<path d="M56.0639 54.5475C56.1529 54.5987 56.2419 54.6465 56.3274 54.684C56.2419 54.6465 56.1529 54.5987 56.0639 54.5475C56.0092 54.6499 55.9236 54.6909 55.8278 54.7079C55.9236 54.6909 56.0092 54.6499 56.0639 54.5475Z" fill="#FCB400"/>
<path d="M56.7621 55.9124C56.8066 56.0728 56.8579 56.2298 56.8921 56.3902C56.8579 56.2298 56.8066 56.0694 56.7655 55.9124H56.7621Z" fill="#FCB400"/>
<path d="M58.1412 57.0828C58.2541 57.0521 58.3602 57.0009 58.4663 56.9361C58.4663 56.8815 58.4731 56.8269 58.48 56.7723C58.4731 56.8269 58.4697 56.8815 58.4663 56.9361C58.3602 57.0009 58.2541 57.0521 58.1412 57.0828Z" fill="#FCB400"/>
<path d="M51.4202 35.7019C51.4818 35.8145 51.5399 35.9271 51.6015 36.0397C51.7145 36.1523 51.8308 36.2649 51.9437 36.381C51.9609 36.381 51.9711 36.3844 51.9882 36.3878C51.9472 36.2479 51.9027 36.1046 51.8616 35.9647C51.8103 35.7906 51.759 35.6166 51.7076 35.4426C51.6084 35.5211 51.5297 35.6371 51.4202 35.7053V35.7019Z" fill="#FCB400"/>
<path d="M47.3068 35.8657C46.4342 35.6712 46.9167 34.9717 46.7901 34.4974C46.6019 34.2449 46.4102 34.4428 46.2015 34.4565C45.8148 34.4769 45.257 34.9171 45.0722 34.1562C44.6718 34.3268 44.73 34.6817 44.7266 35.0127C45.0962 34.9956 45.387 35.0843 45.4144 35.5245C46.1467 36.0909 45.3768 36.7938 45.5855 37.4114C45.7395 37.4285 45.8627 37.8653 46.0133 37.5275C46.2734 36.944 46.8962 36.9098 47.3 36.555C47.3068 36.4151 47.3342 36.2854 47.4711 36.2103C47.4711 36.067 47.4437 35.9408 47.3034 35.8623L47.3068 35.8657Z" fill="#FCB400"/>
<path d="M46.4411 30.7781C46.4342 30.9453 46.4582 31.1091 46.6156 31.2456C46.4582 31.1091 46.4377 30.9453 46.4411 30.7781Z" fill="#FCB400"/>
<path d="M47.4746 31.7711C47.4643 32.0509 47.454 32.3341 47.478 32.6139C47.5327 32.6139 47.5875 32.6173 47.6457 32.6207C47.5909 32.6207 47.5362 32.6173 47.478 32.6139C47.454 32.3341 47.4643 32.0543 47.4746 31.7711Z" fill="#FCB400"/>
<path d="M43.5255 35.1867C43.2722 35.4494 42.9985 35.4153 42.7897 35.1696C42.6083 34.9581 42.6049 34.6987 42.865 34.5008C42.995 34.4019 43.149 34.337 42.9471 34.1221C42.2901 33.426 42.9197 33.5079 43.3544 33.4772C43.6966 33.3816 43.7753 33.2519 43.3715 33.1428C42.9369 33.0267 42.4817 32.9687 42.3277 32.4467C42.3106 32.1976 42.3927 31.9144 42.1703 31.7267C41.7254 31.3514 41.9445 31.1739 42.3585 31.0511C42.5741 30.9897 42.7931 30.9487 43.0121 30.9009C43.0737 30.7474 43.3441 30.7201 43.2893 30.5119C43.214 30.2287 42.995 30.3447 42.8034 30.3755C42.4235 30.4369 42.1087 30.3823 42.1532 29.8773C41.8349 30.0138 41.4243 30.8054 41.26 29.751C41.2532 29.7101 40.9452 29.7203 40.7809 29.7067C40.8391 29.8193 40.8973 29.9353 40.9555 30.0479C40.9076 30.1366 40.8597 30.2253 40.7912 30.2799C40.8597 30.2253 40.9076 30.1332 40.9555 30.0479C41.0924 30.6143 40.7536 31.3104 41.4243 31.7403C41.4996 31.7881 41.4551 32.0065 41.3456 32.0167C40.5619 32.085 41.2429 32.549 41.1266 32.7913C41.1266 33.501 41.2292 34.1869 41.6604 34.7806C41.9 35.1116 41.8144 35.3505 41.4688 35.5279C41.5817 36.166 41.8007 36.5277 42.4407 35.9271C42.5228 35.8521 42.7076 35.8862 42.841 35.8691C43.1832 35.3982 43.5289 36.2172 43.8711 35.8691C43.8711 35.8145 43.8711 35.7599 43.8779 35.7019C43.8779 35.5279 43.8779 35.3573 43.8779 35.1833C43.7616 34.9922 43.6486 35.173 43.5323 35.1833L43.5255 35.1867Z" fill="#FCB400"/>
<path d="M50.7084 32.3238C50.5613 32.8288 50.1849 32.5593 49.8769 32.4467C49.2232 32.201 48.8126 32.433 48.6826 33.1325C48.6415 33.3543 48.621 33.484 48.3609 33.6273C47.9913 33.832 48.0153 34.3439 48.4259 34.453C48.9632 34.5998 49.0864 35.0263 49.3601 35.3641C49.3601 35.4767 49.3601 35.5893 49.3601 35.6985C49.4183 35.8145 49.4765 35.9305 49.5312 36.0465C49.5347 36.1864 49.5655 36.3127 49.6989 36.3878C50.0137 36.183 50.3149 36.0329 50.0343 35.5279C49.9077 35.2959 50.1404 34.825 50.4449 34.7294C50.7906 34.6202 50.9103 34.9376 50.794 35.4665C51.0712 35.1457 51.2628 34.9239 51.516 34.8182C51.4852 34.7192 51.4579 34.6168 51.4271 34.5179C51.1225 34.3404 50.7803 34.1732 51.2628 33.9549C51.1054 33.4226 50.948 32.8868 50.7906 32.3545C50.7735 32.2897 50.7529 32.2283 50.7358 32.1635C50.729 32.218 50.7153 32.2726 50.7016 32.3272L50.7084 32.3238Z" fill="#FCB400"/>
<path d="M51.3415 52.49C52.1115 52.8994 52.7001 52.6845 53.145 51.9747V51.9679C53.0902 51.6847 53.032 51.4015 52.9773 51.1183C52.5461 50.8351 52.2039 50.3778 51.6016 50.4222C51.7248 50.2993 51.8617 50.2072 52.0088 50.1355C51.8617 50.2072 51.7248 50.2993 51.6016 50.4222C51.4305 50.3676 51.2594 50.313 51.0849 50.2584C50.8556 50.1424 50.6263 50.0298 50.397 49.9138C50.2533 50.1185 50.4449 50.4119 50.2259 50.5996C50.1951 50.6474 50.1712 50.6986 50.1506 50.7497C50.3696 51.091 50.5921 51.4322 50.8111 51.7734C50.9651 52.0089 51.1157 52.2477 51.2697 52.4831C51.297 52.4831 51.3244 52.4763 51.3449 52.4866L51.3415 52.49Z" fill="#FCB400"/>
<path d="M46.1125 43.5739C46.1125 43.4169 46.1707 43.3043 46.3384 43.2702C46.424 43.277 46.489 43.3009 46.53 43.3453C46.489 43.3009 46.424 43.277 46.3384 43.2702C46.1707 43.3043 46.1125 43.4169 46.1125 43.5739Z" fill="#FCB400"/>
<path d="M41.2908 36.3844L41.2874 36.3878L41.2908 36.3844Z" fill="#FCB400"/>
<path d="M45.5889 39.2916C45.565 39.2029 45.5445 39.1176 45.5239 39.0288C45.5445 39.1176 45.5684 39.2029 45.5889 39.2916C45.6197 39.3462 45.6677 39.3701 45.7224 39.3769C45.6677 39.3701 45.6197 39.3462 45.5889 39.2916Z" fill="#FCB400"/>
<path d="M56.5807 52.49C56.6902 52.3672 56.7176 52.2614 56.7005 52.1727C56.7176 52.2648 56.6902 52.3672 56.5807 52.49Z" fill="#FCB400"/>
<path d="M50.4791 36.2786C50.3114 36.4321 50.1301 36.5584 49.8802 36.5652C50.1301 36.5618 50.3149 36.4356 50.4791 36.2786Z" fill="#FCB400"/>
<path d="M50.2259 38.4351C50.2806 38.4351 50.3354 38.4351 50.3901 38.4351C50.4757 38.2645 50.5886 38.1723 50.7255 38.128C50.5886 38.1689 50.4757 38.2611 50.3901 38.4351C50.3354 38.4351 50.2806 38.4351 50.2259 38.4351Z" fill="#FCB400"/>
<path d="M49.8769 36.5652C49.8221 36.5584 49.7673 36.555 49.7092 36.555C49.7092 36.5175 49.7057 36.4799 49.7057 36.4458C49.7057 36.4833 49.7057 36.5209 49.7092 36.555C49.7639 36.555 49.8187 36.5618 49.8769 36.5652Z" fill="#FCB400"/>
<path d="M48.443 47.4536C48.4156 47.5969 48.3848 47.7368 48.3301 47.8596C48.3848 47.7334 48.4156 47.5935 48.443 47.4536Z" fill="#FCB400"/>
<path d="M31.8972 8.49641C30.8159 9.82376 30.0938 11.5128 30.1965 13.2428C30.3162 15.314 31.5893 16.9928 32.0239 18.9719C32.2531 20.0228 32.0615 21.1693 31.4626 21.7801C33.4782 24.9023 35.4904 28.0279 37.506 31.1535C38.1289 32.1191 38.7517 33.0814 39.3711 34.047C39.4156 33.9276 39.4806 33.8082 39.5695 33.6853C39.8467 34.0607 39.7817 34.6339 40.2608 34.8455C40.538 34.6032 40.384 34.2756 40.4319 33.9856C40.4593 33.327 39.768 33.3168 39.2958 32.8357C39.9631 32.9688 40.1958 32.7743 40.0863 32.2727C40.1924 31.3309 39.5216 30.4847 39.7441 29.5293C39.8707 29.1403 39.0597 28.9321 39.4464 28.6318C39.922 28.2633 40.3737 28.7206 40.7741 29.0174C41.6468 29.4644 42.5912 29.3552 43.5221 29.3621C43.5871 29.1983 43.7 29.0823 43.8643 29.0174C43.9498 28.8809 44.1586 28.6489 44.2167 28.8298C44.5795 29.9319 45.4829 29.6623 46.27 29.7033C46.5917 29.4132 46.7799 29.0447 46.9031 28.3828C47.3787 29.5327 48.2343 30.297 48.0358 31.4708C47.9639 31.8905 47.9879 32.2147 48.5046 32.2727C49.059 32.027 48.7544 31.5561 48.7407 31.0579C49.2369 31.307 49.6989 31.1808 50.1369 31.2695C50.3115 31.3036 50.4415 31.3753 50.5373 31.464C47.7997 22.1418 45.1065 12.806 42.3928 3.47705C39.0905 4.2721 35.3775 5.20363 32.8452 7.50004C32.5064 7.80714 32.1847 8.13813 31.8938 8.49641H31.8972ZM47.3479 28.3418C46.9236 28.3964 46.8141 27.673 46.7114 27.284C46.6327 26.994 47.0194 26.7995 47.3651 26.7961C47.5635 26.7961 47.7586 26.8029 47.7689 27.1236C47.2384 27.4137 48.046 28.2565 47.3479 28.3452V28.3418Z" fill="#FCB400"/>
<path d="M54.3735 44.3382C53.9149 44.4815 53.8807 45.454 53.145 44.9524C52.9807 45.0685 52.9704 45.222 53.0286 45.396C53.2134 45.9386 53.0799 46.1058 52.5427 45.8089C52.1046 45.5666 51.9986 46.2627 51.6016 46.1501C51.629 46.7131 51.6392 47.1158 50.8145 47.2011C50.3081 47.2523 49.7947 47.6788 49.1993 47.6924C49.1411 47.6924 49.0829 47.6924 49.0248 47.6924C49.0829 47.6924 49.1411 47.6924 49.1993 47.6924C49.2643 48.078 48.9597 48.2964 48.7305 48.5489C48.8366 48.7161 48.9461 48.8833 49.0521 49.0471C49.0761 49.0846 49.1001 49.1187 49.124 49.1563C49.5483 49.1767 49.9727 49.2996 50.397 49.2313C50.7392 49.2859 51.0849 49.3439 51.4271 49.3985C51.7727 49.1972 52.5016 49.5419 52.3921 48.6581C52.3681 48.4738 52.878 48.5762 53.145 48.5591C53.3263 48.2316 52.9704 47.4843 53.8294 47.689C53.9457 47.689 54.0621 47.689 54.1818 47.689C54.3187 47.6174 54.3461 47.4877 54.353 47.3512C54.726 47.0817 54.5343 46.3241 54.9689 46.3105C54.9895 46.3105 55.0134 46.3105 55.0305 46.3173C54.8184 45.6553 54.6096 44.99 54.4009 44.328C54.4009 44.328 54.4009 44.328 54.4009 44.3246C54.394 44.328 54.3837 44.3314 54.3735 44.3348V44.3382Z" fill="#FCB400"/>
<path d="M40.2813 35.4529C40.3703 35.5928 40.4593 35.7292 40.5482 35.8691C40.5653 35.8964 40.5859 35.9271 40.603 35.9544V35.7019C40.5003 35.5757 40.3942 35.4972 40.2813 35.4529Z" fill="#FCB400"/>
<path d="M40.9554 35.6678C41.0684 35.6371 41.1779 35.5859 41.284 35.5245C41.284 35.4699 41.2874 35.4153 41.2908 35.3573C41.2908 35.4119 41.2874 35.4665 41.284 35.5245C41.1779 35.5859 41.0684 35.6371 40.9554 35.6678Z" fill="#FCB400"/>
<path d="M55.7183 55.056C55.7183 55.131 55.7183 55.2027 55.7217 55.2709C55.7149 55.2027 55.7149 55.131 55.7183 55.056Z" fill="#FCB400"/>
<path d="M54.2845 43.9595C54.2469 43.8401 54.2092 43.7206 54.1716 43.6012C54.1716 43.6524 54.1716 43.7002 54.1716 43.7513C54.1818 43.8196 54.2297 43.8946 54.2879 43.9663L54.2845 43.9595Z" fill="#FCB400"/>
<path d="M56.2795 50.156C56.0947 50.2482 55.9065 50.3437 55.7217 50.4358C55.9065 50.3437 56.0947 50.2482 56.2795 50.156Z" fill="#FCB400"/>
<path d="M55.8895 58.3078C55.8963 58.086 56.0127 57.9734 56.2317 57.9598C56.2898 57.9052 56.348 57.8506 56.4028 57.796C56.4233 57.2193 55.8689 56.8167 55.5849 56.861C55.2085 56.9225 54.6233 56.9293 54.4214 57.3831C54.6438 57.7277 54.8663 58.0724 55.0887 58.417C55.1263 58.4784 55.1674 58.5398 55.205 58.6013C55.4035 58.4614 55.691 58.4614 55.886 58.3146L55.8895 58.3078Z" fill="#FCB400"/>
<path d="M53.4905 41.4106C53.4905 41.4481 53.4871 41.4856 53.4837 41.5232C53.1997 41.5232 52.9156 41.5232 52.6316 41.5232C52.9156 41.5232 53.1997 41.5232 53.4837 41.5232C53.4837 41.4856 53.4871 41.4481 53.4905 41.4106Z" fill="#FCB400"/>
<path d="M54.1681 43.5841C53.9217 43.5773 53.7575 43.5227 53.6479 43.4374C53.7575 43.5227 53.9217 43.5773 54.1681 43.5841Z" fill="#FCB400"/>
<path d="M55.7217 50.4358C55.5472 50.4324 55.4 50.3847 55.2769 50.3164C55.4035 50.3881 55.5472 50.4324 55.7217 50.4358Z" fill="#FCB400"/>
<path d="M52.2038 44.8671C51.9985 44.9763 51.8342 45.1503 51.7658 45.4677C51.8342 45.1503 51.9985 44.9797 52.2038 44.8671Z" fill="#FCB400"/>
<path d="M65.3275 53.715C65.3275 53.6604 65.3275 53.6092 65.3344 53.558C65.3583 53.5444 65.3823 53.5341 65.4028 53.5205C65.3788 53.5341 65.3549 53.5444 65.3344 53.558C65.3275 53.6092 65.3275 53.6604 65.3275 53.715Z" fill="#FCB400"/>
<path d="M64.4686 48.5864C64.4686 48.6274 64.4652 48.6649 64.4549 48.699C64.4617 48.6649 64.4686 48.6274 64.4686 48.5864Z" fill="#FCB400"/>
<path d="M65.8443 60.5769C65.7211 60.7305 65.6321 60.9386 65.526 61.1194C65.6321 60.942 65.7176 60.7305 65.8443 60.5803V60.5769Z" fill="#FCB400"/>
<path d="M61.1697 52.391C61.1115 52.333 61.0671 52.2648 61.0328 52.1829C60.961 52.1829 60.8959 52.1727 60.8344 52.1454C60.8925 52.1692 60.961 52.1795 61.0328 52.1829C61.0671 52.2648 61.1115 52.333 61.1697 52.391Z" fill="#FCB400"/>
<path d="M57.8605 39.5987C57.7373 39.3462 57.5628 39.1278 57.2548 38.9913C57.5628 39.1278 57.7373 39.3462 57.8605 39.5987Z" fill="#FCB400"/>
<path d="M60.3484 47.7265C60.2868 47.6549 60.2218 47.6139 60.1533 47.5866C60.2218 47.6139 60.2902 47.6549 60.3484 47.7265Z" fill="#FCB400"/>
<path d="M59.2431 53.7081C59.291 53.9026 59.5306 54.1824 59.8283 54.2404C59.8522 54.3599 59.8557 54.4691 59.8385 54.568C59.8557 54.4691 59.8522 54.3599 59.8283 54.2404C59.5271 54.1858 59.2876 53.906 59.2431 53.7081Z" fill="#FCB400"/>
<path d="M63.9553 48.5864C63.8971 48.5864 63.839 48.5864 63.7808 48.5864C63.7226 48.3714 63.6576 48.1599 63.6097 47.9449C63.6576 48.1599 63.7226 48.3749 63.7808 48.5864C63.839 48.5864 63.8971 48.5864 63.9553 48.5864Z" fill="#FCB400"/>
<path d="M68.4211 69.998C68.5306 70.4348 68.7359 70.7931 68.9926 71.107C68.9549 70.9398 68.9207 70.776 68.8831 70.6088C68.8044 70.2437 68.7222 69.8752 68.6435 69.5101C68.4895 69.5578 68.4074 69.7114 68.4211 69.998Z" fill="#FCB400"/>
<path d="M64.123 63.6616L64.1298 63.6581L64.123 63.6616Z" fill="#FCB400"/>
<path d="M63.7808 61.7746C63.726 61.7746 63.6713 61.7746 63.6165 61.778C63.6713 61.778 63.726 61.778 63.7808 61.7746Z" fill="#FCB400"/>
<path d="M70.3101 76.9726C70.2143 76.9726 70.115 76.9282 70.0158 76.8736C69.5983 76.6382 69.1808 76.4027 68.7667 76.1673C68.6812 76.2526 68.5956 76.3413 68.5101 76.4266C68.842 77.0579 69.1808 77.6891 69.5264 78.317C69.5401 78.3443 69.5538 78.3682 69.5675 78.3955C69.92 79.0404 70.2793 79.6819 70.6455 80.32C70.6797 80.3029 70.7139 80.2858 70.7481 80.2654C70.8474 80.2073 70.9398 80.1425 71.0322 80.0743C70.7892 79.0404 70.5496 78.0065 70.3135 76.9692L70.3101 76.9726Z" fill="#FCB400"/>
<path d="M62.4119 41.7381C62.696 41.7381 62.9766 41.7313 63.2606 41.7279C63.2674 41.7074 63.2846 41.6903 63.2948 41.6733C63.2846 41.6903 63.2709 41.7074 63.2606 41.7279C62.9766 41.7279 62.6925 41.7347 62.4119 41.7381Z" fill="#FCB400"/>
<path d="M63.6062 64.1836C63.5515 64.1768 63.4967 64.1734 63.4454 64.1734C63.5001 64.1734 63.5549 64.1802 63.6062 64.1836C63.7534 64.2758 63.88 64.402 64.01 64.5214C63.88 64.402 63.7499 64.2758 63.6062 64.1836Z" fill="#FCB400"/>
<path d="M63.9587 58.0109C63.8457 58.0485 63.726 58.0621 63.6028 58.0723C63.726 58.0621 63.8457 58.045 63.9587 58.0109Z" fill="#FCB400"/>
<path d="M55.999 36.0227C56.0195 35.9851 56.04 35.9476 56.0606 35.9101C56.04 35.9476 56.0195 35.9851 55.999 36.0227Z" fill="#FCB400"/>
<path d="M64.1264 51.6676C63.9553 51.7802 63.7808 51.8928 63.6097 52.0054C63.4967 51.9508 63.3838 51.8928 63.2709 51.8382C63.3838 51.8928 63.4967 51.9508 63.6097 52.0054C63.7808 51.8928 63.9553 51.7802 64.1264 51.6676Z" fill="#FCB400"/>
<path d="M60.718 58.98C60.9952 58.9391 61.269 58.9015 61.5462 58.8606C61.269 58.9015 60.9952 58.9391 60.718 58.98Z" fill="#FCB400"/>
<path d="M56.9058 15.3549C56.8989 15.2765 56.9024 15.2082 56.9126 15.1468C56.9024 15.2082 56.8989 15.2765 56.9058 15.3549Z" fill="#FCB400"/>
<path d="M54.1613 25.6325C53.9902 25.9157 53.8191 26.1989 53.6445 26.4856C53.9012 27.0588 54.3187 26.6835 54.6746 26.6562C55.3966 26.2399 55.9407 25.5028 56.8681 25.4551C57.1145 25.4414 57.4636 25.496 57.3712 25.0934C57.3062 24.8136 57.0187 24.4928 56.7518 24.6532C56.129 25.032 55.5883 24.8136 55.0202 24.602C54.743 24.9535 54.5993 25.4175 54.1613 25.6325Z" fill="#FCB400"/>
<path d="M51.759 19.8045C52.1389 19.8079 52.3716 20.2549 52.7891 20.1457C52.8027 19.685 53.2202 19.3916 53.4837 19.2892C54.1339 19.0333 53.9252 19.6543 53.9936 19.9717C54.4145 19.7772 54.7636 19.6339 54.5754 18.9821C54.4009 18.3816 54.8389 17.9039 55.3659 17.5763C55.3727 17.8561 55.3864 18.1359 55.3933 18.4123C55.383 18.1325 55.3727 17.8527 55.3659 17.5763C55.3659 17.4637 55.3659 17.3511 55.3659 17.2351C55.099 17.0713 54.8081 17.0474 54.5035 17.061C54.3324 17.1088 54.1613 17.3374 53.9902 17.0645C53.737 17.0474 53.4769 17.0679 53.2339 17.0099C52.6282 16.8631 52.3065 17.259 52.3236 17.6957C52.351 18.4566 51.913 18.4293 51.4168 18.4396C51.1875 18.7535 50.9274 19.0606 51.2457 19.4632C51.4921 19.4632 51.978 19.1084 51.759 19.8045Z" fill="#FCB400"/>
<path d="M56.0469 21.514C56.0503 21.5686 56.064 21.6129 56.0777 21.6539C56.064 21.6163 56.0537 21.572 56.0469 21.514Z" fill="#FCB400"/>
<path d="M58.4937 26.2501C57.8298 26.1307 57.5457 26.3764 57.2549 26.8268C57.5321 27.0008 57.7613 27.1885 57.426 27.516C56.8271 27.8163 56.194 27.6559 55.5849 27.5979C55.2837 27.5706 54.9826 27.5229 54.678 27.5126C54.6678 27.5843 54.6199 27.6832 54.6472 27.7208C55.2119 28.4339 54.8218 28.567 54.1545 28.5397C54.0415 28.5363 53.9286 28.5397 53.8191 28.5397C54.3598 28.8878 55.0955 29.0072 55.318 29.8295C54.9005 29.7442 54.5138 29.6384 54.1237 29.5907C53.6993 29.5395 53.3024 29.4951 53.0868 30.065C52.8541 30.6792 52.2552 30.3721 51.8035 30.3891C51.694 30.3925 51.6153 30.2731 51.6255 30.14C51.6358 30.0036 51.735 29.949 51.848 29.9148C52.1833 29.8125 52.4537 29.6146 52.7206 29.3928C52.9978 29.1641 53.3571 29.0891 52.8849 28.625C52.5769 28.3213 53.0149 28.0415 53.3024 27.8504C53.7678 27.6287 53.4872 27.4171 53.2784 27.2362C53.1107 27.0929 52.9773 26.7415 52.6761 27.0315C52.4605 27.2362 52.2347 27.3727 51.9267 27.3386C51.8103 27.3966 51.6974 27.4512 51.5811 27.5092C51.2217 27.8846 50.9377 28.277 51.1259 28.8468C51.1499 28.9185 51.1533 29.0106 51.1362 29.0891C51.6324 30.8122 52.132 32.5388 52.6385 34.2654C52.9636 34.2927 53.3263 34.2381 53.7027 34.0811C54.1955 33.873 54.1476 34.0402 54.1647 34.3609C54.6233 34.4906 55.0784 35.0093 55.5267 34.2654C55.6465 34.0641 56.1119 34.4531 56.3925 34.1869C56.502 34.0334 56.5123 33.7502 56.7518 33.7706C56.9777 33.7911 56.8819 34.0368 56.9092 34.1937C56.9092 34.2483 56.9127 34.3063 56.9161 34.3609C57.1111 34.3541 57.3917 34.4326 57.4944 34.3302C58.4081 33.426 58.5073 34.3712 58.8016 34.8796C59.2431 35.2993 59.8249 35.562 60.1876 36.0739H60.1671H60.1876C60.434 36.0466 60.653 36.1319 60.8652 36.2445C61.2553 36.3366 61.6249 36.0705 62.0766 36.3025C62.234 36.381 62.3401 36.3025 62.3983 36.1558C62.1313 34.477 61.8747 32.7981 61.6249 31.1159C61.5872 30.8737 61.553 30.6314 61.5154 30.3891C61.269 28.7274 61.026 27.0656 60.7933 25.4005C60.7933 25.4005 60.7933 25.4005 60.7933 25.4039C60.1979 26.1512 59.3492 26.3968 58.5039 26.2399L58.4937 26.2501ZM57.5868 29.8329C57.4944 29.7988 57.3815 29.7442 57.337 29.6657C57.2788 29.5634 57.3165 29.4303 57.4705 29.4644C57.5629 29.4849 57.6381 29.5804 57.7476 29.6589C57.6758 29.7408 57.6073 29.8432 57.5834 29.8329H57.5868Z" fill="#FCB400"/>
<path d="M50.0377 18.948C49.9932 19.0435 49.935 19.1152 49.8597 19.1698C49.935 19.1152 49.9932 19.0401 50.0377 18.948Z" fill="#FCB400"/>
<path d="M49.5859 21.9439C49.7091 21.8688 49.8563 21.8415 50.0342 21.8586C50.1095 21.8108 50.1848 21.7597 50.2601 21.7119C50.1848 21.7597 50.1095 21.8108 50.0342 21.8586C49.8563 21.8415 49.7091 21.8688 49.5859 21.9439Z" fill="#FCB400"/>
<path d="M49.8803 16.2353C49.8289 16.1568 49.7776 16.0817 49.6955 16.034C49.6339 15.9282 49.586 15.819 49.5552 15.7064C49.586 15.819 49.6373 15.9282 49.6955 16.034C49.7742 16.0817 49.8289 16.1568 49.8803 16.2353Z" fill="#FCB400"/>
<path d="M58.6306 13.4612C58.6682 13.526 58.7058 13.5874 58.7401 13.6522C58.7058 13.5874 58.6682 13.5226 58.6306 13.4612Z" fill="#FCB400"/>
<path d="M59.0754 17.1634C58.9898 17.2487 58.9522 17.3852 58.9659 17.5729C58.7948 17.6309 58.6237 17.6889 58.456 17.7469C58.6271 17.6889 58.7982 17.6309 58.9659 17.5729C58.9522 17.3852 58.9864 17.2487 59.0754 17.1634Z" fill="#FCB400"/>
<path d="M58.3431 18.2621C58.326 18.2621 58.3054 18.2621 58.2883 18.2621C58.2883 18.4908 58.2883 18.7194 58.2883 18.9446C58.2883 18.716 58.2883 18.4874 58.2883 18.2621C58.3054 18.2621 58.326 18.2621 58.3431 18.2621Z" fill="#FCB400"/>
<path d="M54.6815 35.5654C54.7362 35.736 54.7944 35.9032 54.8491 36.0738C54.9655 36.1557 55.0921 36.2001 55.2187 36.224C55.0921 36.2001 54.9689 36.1557 54.8491 36.0738C54.7944 35.9032 54.7362 35.736 54.6815 35.5654Z" fill="#FCB400"/>
<path d="M57.4259 22.3773C57.2001 22.6536 56.7792 22.7458 56.6833 23.1655C57.1522 23.3395 57.2754 22.7662 57.6347 22.7424C57.8811 22.7253 58.2267 22.6025 58.3431 22.8481C58.4731 23.1245 58.2609 23.435 57.9803 23.5169C57.6278 23.6193 57.2411 23.7148 57.3301 24.1311C57.4191 24.544 57.7716 24.6771 58.2096 24.4962C58.391 24.4212 58.5073 24.602 58.6202 24.7351C59.1644 25.3732 59.794 25.479 60.5058 25.0217C60.5743 24.9774 60.6461 24.9193 60.718 24.8955C60.6461 24.37 60.5743 23.8445 60.5024 23.3156C60.4442 23.2542 60.3963 23.1859 60.3655 23.1143C60.4031 23.1143 60.4408 23.1211 60.4784 23.1245C60.4339 22.7935 60.3895 22.4626 60.345 22.1316C60.0096 22.0292 59.664 21.9541 59.3252 21.8688C58.7161 22.1213 58.0214 22.0599 57.4362 22.3841L57.4259 22.3773Z" fill="#FCB400"/>
<path d="M57.8537 14.3245H57.7716C57.7716 14.3518 57.7716 14.3825 57.7716 14.4098C57.7716 14.3825 57.7716 14.3552 57.7716 14.3245H57.8537Z" fill="#FCB400"/>
<path d="M58.8016 20.9987C59.0275 21.1181 59.202 21.2853 59.3149 21.5174C59.6298 21.5378 59.9343 21.4696 60.2389 21.4116C60.1739 20.9134 60.1054 20.4152 60.0404 19.9136C59.4826 20.0535 58.9488 20.2241 58.7982 20.9953L58.8016 20.9987Z" fill="#FCB400"/>
<path d="M58.2473 21.7426C58.3944 21.6948 58.5244 21.6163 58.6237 21.4901C58.5244 21.6197 58.3944 21.6948 58.2473 21.7426Z" fill="#FCB400"/>
<path d="M58.6237 21.4901C58.7126 21.3775 58.7742 21.2205 58.7982 21.009V20.9987V21.009C58.7742 21.2205 58.7126 21.3775 58.6237 21.4901Z" fill="#FCB400"/>
<path d="M54.5446 40.0286C54.5651 40.0764 54.5993 40.1173 54.6472 40.1446C54.5993 40.1173 54.5651 40.0764 54.5446 40.0286Z" fill="#FCB400"/>
<path d="M54.3324 39.6772C54.3872 39.6772 54.4453 39.6772 54.5001 39.6806C54.5001 39.7283 54.5001 39.7795 54.5001 39.8273C54.5001 39.7795 54.5001 39.7317 54.5001 39.6806C54.4453 39.6806 54.3872 39.6772 54.3324 39.6772Z" fill="#FCB400"/>
<path d="M53.9902 20.3197C53.9115 20.4528 53.7404 20.5244 53.6719 20.6643C53.7404 20.5244 53.9115 20.4528 53.9902 20.3197C54.3974 20.3845 54.7978 20.3402 55.1948 20.2787C54.7978 20.3368 54.3974 20.3811 53.9902 20.3197Z" fill="#FCB400"/>
<path d="M57.8777 50.5109C57.8195 50.3574 57.7374 50.2243 57.5731 50.1629C57.7374 50.2243 57.8195 50.3574 57.8777 50.5109Z" fill="#FCB400"/>
<path d="M58.7708 37.913C58.4765 37.9608 58.2027 38.1621 57.9358 38.4726C57.8229 38.4726 57.7134 38.4726 57.6005 38.4726C57.7134 38.4726 57.8229 38.4726 57.9358 38.4726C58.2027 38.1655 58.4765 37.9642 58.7708 37.913Z" fill="#FCB400"/>
<path d="M54.8491 40.537C54.9415 40.5302 55.0408 40.537 55.1332 40.52C55.0442 40.537 54.9449 40.5302 54.8491 40.537Z" fill="#FCB400"/>
<path d="M54.9655 38.5545C54.9244 38.534 54.8868 38.5102 54.8491 38.476C54.8217 38.3395 54.7704 38.2542 54.7088 38.1996C54.7704 38.2508 54.8217 38.3361 54.8491 38.476C54.8868 38.5102 54.9244 38.5375 54.9655 38.5545Z" fill="#FCB400"/>
<path d="M48.2137 17.9857C48.2684 17.8834 48.3608 17.8015 48.4909 17.7469C48.4909 17.6923 48.4909 17.6343 48.4909 17.5797C48.4909 17.6343 48.4909 17.6923 48.4909 17.7469C48.3608 17.8015 48.2719 17.8834 48.2137 17.9857Z" fill="#FCB400"/>
<path d="M54.5035 22.5445C54.7156 22.5445 54.9278 22.5342 55.14 22.5445C54.9278 22.5376 54.7156 22.5479 54.5035 22.5445Z" fill="#FCB400"/>
<path d="M67.3568 63.4363C67.3363 63.4602 67.3123 63.4841 67.2918 63.5012C67.3123 63.4841 67.3363 63.4568 67.3568 63.4363Z" fill="#FCB400"/>
<path d="M48.1452 18.2655C48.0973 18.2724 48.0528 18.2689 48.0084 18.2724C48.046 18.4054 48.0871 18.5419 48.1247 18.675C48.1521 18.774 48.1829 18.8695 48.2103 18.9684C48.2548 18.7637 48.2342 18.5283 48.1452 18.2655Z" fill="#FCB400"/>
<path d="M53.9423 24.271C53.778 24.2744 53.6719 24.3836 53.6445 24.6054C53.6719 24.3836 53.778 24.2779 53.9423 24.271Z" fill="#FCB400"/>
<path d="M51.8171 25.1138C52.0122 24.602 52.4434 24.3222 52.9019 24.329C52.4434 24.3222 52.0122 24.602 51.8171 25.1138Z" fill="#FCB400"/>
<path d="M47.146 15.3174C47.3 14.9216 47.4814 14.5326 47.4814 14.0958C47.4814 13.9764 47.5533 13.874 47.6833 13.857C47.8612 13.8365 47.9536 13.9457 47.9605 14.1027C47.9708 14.3654 48.0187 14.6111 48.1487 14.8397C48.2616 14.8397 48.3746 14.8397 48.4909 14.8397C48.5491 14.6691 48.6073 14.4985 48.6654 14.3279C48.2206 14.304 48.135 14.0105 48.1521 13.642C48.3267 13.4202 48.5662 13.3315 48.8331 13.2974C48.3335 12.847 48.443 12.0758 47.9468 11.6186C47.916 11.5913 47.8989 11.4821 47.9194 11.4684C48.6825 10.902 48.2582 10.3015 47.9776 9.70432C47.3787 9.34945 47.4643 8.59535 47.0502 8.12105C46.8791 7.92314 47.0776 7.73888 47.2898 7.6877C47.4917 7.63652 47.6354 7.76959 47.6217 7.97091C47.5704 8.77961 47.9194 9.10718 48.7407 9.04576C49.1069 9.01846 49.2951 9.40745 49.5346 9.64631C49.6921 9.80327 49.7365 9.99777 49.5997 10.1888C49.4491 10.4004 49.2711 10.3731 49.0898 10.2161C48.946 10.0899 48.8023 10.0251 48.662 10.2196C48.751 10.9532 48.6004 11.7619 49.3499 12.2771C50.0137 12.3249 50.681 12.2908 50.9377 13.1711C50.9959 13.3793 51.5947 13.4816 51.9609 13.5294C52.1902 13.5601 52.2449 13.6318 52.2757 13.8126C52.4811 13.8945 52.3887 14.3381 52.8062 14.1948C53.0525 14.1129 53.1689 14.3415 53.0833 14.5667C52.7856 15.3447 53.2784 15.3652 53.8191 15.3549C54.4647 15.0046 54.5001 14.5144 53.9252 13.8843C53.559 13.4816 53.891 12.7582 54.5069 12.6183C54.7362 12.6183 54.9621 12.6183 55.1913 12.6183C55.9476 12.5399 56.5225 12.8197 56.9092 13.4748C57.1351 13.3554 57.0495 12.9289 57.426 12.963C57.4807 12.905 57.5355 12.847 57.5936 12.789C57.5936 12.1611 57.5936 11.5333 57.5971 10.9054C57.5731 10.4175 57.6073 9.96023 57.8948 9.52006C58.0351 9.30509 57.9495 8.92633 58.3328 8.88197C58.6374 8.84785 58.5895 9.17201 58.7435 9.32897C58.5792 7.89585 58.4218 6.46272 58.2712 5.02959C58.2678 4.98523 58.261 4.94087 58.2575 4.89652C58.1001 3.43268 57.9495 1.96884 57.8058 0.505005C57.7887 0.505005 57.775 0.508417 57.7579 0.511829C53.0183 1.26934 48.2787 2.05756 43.611 3.19041C44.7882 7.23388 45.9654 11.2773 47.1426 15.3242L47.146 15.3174ZM51.6461 12.8913C51.4613 12.9391 51.3004 12.8162 51.3039 12.6218C51.3073 12.3693 51.4989 12.2089 51.7248 12.1611C51.9198 12.1202 52.0122 12.2908 52.067 12.417C52.0944 12.7651 51.8548 12.8401 51.6461 12.8947V12.8913ZM53.7643 11.8062C53.6446 12.1338 53.5967 12.8606 53.0183 12.0997C52.7719 11.7755 52.416 12.2669 52.0704 11.8506C52.6932 11.5844 53.1313 11.1852 53.4769 10.6017C53.7678 11.0146 53.9115 11.3968 53.7643 11.8062ZM58.1309 8.46568C58.0625 8.38379 57.9872 8.33602 57.9803 8.27801C57.9735 8.21318 58.0111 8.09375 58.0556 8.07669C58.1822 8.02892 58.2541 8.12105 58.2507 8.24048C58.2507 8.30531 58.1857 8.36673 58.1275 8.46568H58.1309Z" fill="#FCB400"/>
<path d="M65.8443 69.4862C65.704 69.1723 65.4336 69.1313 65.1359 69.1416C65.0709 69.1416 65.0093 69.145 64.9443 69.145C64.9443 69.145 64.9511 69.1586 64.9545 69.1654C65.0332 69.3395 65.112 69.5169 65.1907 69.6909C65.2796 69.667 65.3891 69.667 65.4815 69.65C65.6082 69.6261 65.7245 69.5442 65.8477 69.4862H65.8443Z" fill="#FCB400"/>
<path d="M63.0382 40.1549C62.8876 40.1378 62.7371 40.1207 62.5933 40.0934C62.7371 40.1207 62.8876 40.1378 63.0382 40.1549Z" fill="#FCB400"/>
<path d="M66.6998 64.8592C66.9291 64.9172 67.1584 64.9752 67.3877 65.0298C67.4937 65.0742 67.6033 65.1083 67.7093 65.1356C67.6546 64.8695 67.5964 64.5999 67.5417 64.3337C67.4219 64.3372 67.3021 64.3406 67.1823 64.3406C66.8059 64.3372 66.6827 64.5214 66.7032 64.8592H66.6998Z" fill="#FCB400"/>
<path d="M62.2374 52.0123C62.477 51.8553 62.7371 51.8348 63.004 51.8348C62.7405 51.8348 62.477 51.8553 62.2374 52.0123Z" fill="#FCB400"/>
<path d="M68.0789 68.7969C68.2158 68.7969 68.3527 68.7969 68.4861 68.7969C68.4485 68.6297 68.4108 68.4591 68.3766 68.2919C68.3492 68.2953 68.3253 68.2988 68.2979 68.3022C67.9899 68.3431 67.9454 68.5376 68.0789 68.7935V68.7969Z" fill="#FCB400"/>
<path d="M67.6375 71.5267C67.8736 71.2332 67.942 70.933 67.5622 70.6873C67.3911 70.6293 67.22 70.5713 67.0489 70.5133C66.6245 70.4826 66.2139 70.4007 65.8443 70.172C65.7382 70.1448 65.6253 70.0799 65.5226 70.0936C65.4816 70.1004 65.4336 70.1106 65.3892 70.1209C65.7553 70.9125 66.1318 71.6973 66.5116 72.4821C66.9531 72.2433 67.3226 71.9157 67.6375 71.5233V71.5267Z" fill="#FCB400"/>
<path d="M70.0398 75.7919C69.8892 75.1368 69.742 74.4782 69.5949 73.8197C69.1124 73.5945 68.6401 73.342 68.0755 73.4239C67.9626 73.4239 67.8462 73.4239 67.7333 73.4239C67.5074 73.4239 67.2816 73.417 67.0591 73.4273C67.0283 73.4273 67.001 73.4273 66.9702 73.4273C67.2337 73.9596 67.5006 74.4919 67.7743 75.0242C68.2089 75.2562 68.5991 75.594 69.109 75.6555C69.4204 75.6998 69.7626 75.6725 70.0398 75.7954V75.7919Z" fill="#FCB400"/>
<path d="M67.3876 65.3745C67.196 65.3745 67.0043 65.3813 66.8127 65.3745C66.1214 65.3438 66.5458 65.0742 66.6998 64.8626C66.3507 64.9104 66.0564 64.8183 65.8443 64.5214C65.7861 64.5794 65.7313 64.6374 65.6732 64.692C65.7895 65.0128 66.5081 65.453 65.5021 65.5485C65.1462 66.2412 64.3488 66.2002 63.7979 66.5653C64.0169 67.0738 64.2393 67.5822 64.4652 68.0872C64.4823 68.0053 64.4994 67.92 64.5404 67.8517C64.6739 67.6402 64.8211 67.357 65.088 67.3809C65.3754 67.4082 65.3138 67.7187 65.3309 67.937V67.9439C65.4986 67.9439 65.6697 67.9439 65.8408 67.9439C66.426 68.2032 66.9564 68.4455 67.1652 67.4764C67.2439 67.1147 67.7504 67.2887 68.072 67.2546C68.096 67.2273 68.1199 67.2068 68.1405 67.1864C68.0823 66.9168 68.0275 66.6472 67.9694 66.3743C67.9009 66.0433 67.8291 65.7157 67.7606 65.3847C67.6408 65.3677 67.5177 65.3608 67.3876 65.3711V65.3745Z" fill="#FCB400"/>
<path d="M57.3062 45.7645C57.4499 45.6076 57.5936 45.4574 57.7647 45.338C57.5936 45.4574 57.4499 45.611 57.3062 45.7645Z" fill="#FCB400"/>
<path d="M58.0214 45.2425C57.9838 45.28 57.9359 45.3005 57.8811 45.3175C57.9359 45.3005 57.9872 45.28 58.0214 45.2425Z" fill="#FCB400"/>
<path d="M58.3122 45.0241C58.2541 44.9968 58.1856 44.99 58.1172 44.9865C58.1856 44.99 58.2541 45.0002 58.3122 45.0241Z" fill="#FCB400"/>
<path d="M57.597 42.5946C57.7545 42.5741 57.9187 42.5946 58.0967 42.5844C57.9187 42.5946 57.7545 42.5741 57.597 42.5946Z" fill="#FCB400"/>
<path d="M61.5256 61.0649C61.5256 61.0649 61.5393 61.0785 61.5496 61.0854C61.5462 61.0854 61.5427 61.0854 61.5359 61.0888C61.5359 61.0888 61.5427 61.0888 61.5496 61.0854C61.5427 61.0785 61.5359 61.0717 61.5256 61.0649Z" fill="#FCB400"/>
<path d="M58.6271 41.7279C58.5621 41.6289 58.521 41.5266 58.4937 41.4208C58.521 41.5266 58.5621 41.6289 58.6271 41.7279C58.7024 41.6323 58.7845 41.5573 58.8701 41.5027C58.7845 41.5573 58.7024 41.6323 58.6271 41.7279Z" fill="#FCB400"/>
<path d="M61.5461 37.7902C61.6077 37.9096 61.6556 38.0427 61.7036 38.1724C61.6556 38.0427 61.6112 37.9096 61.5461 37.7902Z" fill="#FCB400"/>
</g>
<defs>
<clipPath id="clip0_404_21241">
<rect width="91" height="107" fill="white"/>
</clipPath>
</defs>
</svg>
