<svg width="73" height="73" viewBox="0 0 73 73" fill="none" xmlns="http://www.w3.org/2000/svg">
<rect width="73" height="73" rx="10" fill="white"/>
<path d="M35.9787 6.25716C28.0961 6.25716 20.5363 9.38851 14.9625 14.9624C9.38862 20.5362 6.25726 28.096 6.25726 35.9786C6.25726 43.8612 9.38862 51.421 14.9625 56.9948C20.5363 62.5687 28.0961 65.7 35.9787 65.7C43.8613 65.7 51.4211 62.5687 56.9949 56.9948C62.5688 51.421 65.7001 43.8612 65.7001 35.9786C65.7001 28.096 62.5688 20.5362 56.9949 14.9624C51.4211 9.38851 43.8613 6.25716 35.9787 6.25716Z" fill="white"/>
<path d="M52.1902 15.5912C48.5058 25.048 38.9261 23.8198 32.1713 24.0655L30.4518 30.4519C38.9261 23.697 49.9796 30.4519 48.8742 40.7684C48.5632 43.7737 47.3361 46.6109 45.3589 48.8955C43.3818 51.1802 40.7503 52.802 37.8208 53.5413C32.0485 54.8922 25.7848 52.8044 22.9601 47.032L21.9776 44.5757L27.9955 42.9791C27.9955 43.3476 28.2412 43.5932 28.364 43.9616C32.4169 50.4709 40.6456 47.1548 41.5053 40.4C42.4878 33.6451 32.9082 29.9606 28.4868 37.9437L23.0829 35.733L25.048 27.6271L26.3989 22.2232L26.7674 20.9951C30.2062 12.0295 36.9611 11.1698 42.9791 11.1698H43.716C37.4984 9.32604 30.8165 9.86899 24.9782 12.6924C19.1398 15.5157 14.5653 20.4163 12.1499 26.4349C9.73449 32.4535 9.65212 39.1569 11.9189 45.233C14.1857 51.3092 18.6384 56.3207 24.4056 59.2867C30.1728 62.2527 36.8393 62.9596 43.1003 61.2692C49.3613 59.5788 54.7661 55.6127 58.2569 50.1471C61.7476 44.6815 63.073 38.11 61.9737 31.7186C60.8743 25.3273 57.4294 19.5763 52.3131 15.5912H52.1902Z" fill="#E52322"/>
<path d="M49.8567 13.8718C49.4861 15.2592 48.7921 16.539 47.8314 17.6065C46.8707 18.6739 45.6708 19.4984 44.3299 20.0126C41.5052 21.2407 38.0663 21.2407 34.7503 21.2407H29.592C32.5396 14.4859 37.5751 13.8718 42.979 13.8718C45.2694 13.7499 47.5634 13.7089 49.8567 13.749V13.8718Z" fill="#00923A"/>
</svg>
