<svg width="164" height="165" viewBox="0 0 164 165" fill="none" xmlns="http://www.w3.org/2000/svg">
<rect y="0.540009" width="164" height="164" rx="12" fill="white"/>
<path fill-rule="evenodd" clip-rule="evenodd" d="M134.679 146.5V138.696H130.776V146.5H134.679ZM52.7352 146.5H25.4199V119.185H52.7352V146.5V146.5ZM64.4402 138.696V130.892H56.6384V134.793H60.5393V138.696H56.6362V146.5H64.4402V142.597H68.3434V138.698H64.4402V138.696ZM91.7556 91.8716V95.7725H87.8524V99.6757H91.7556V111.381H95.6565V115.284H91.7556V119.185H103.461V134.793H95.6587V126.991H87.8524V130.892H91.7556V134.793H87.8524V142.599H91.7556V146.5H95.6565V142.597H103.461V146.5H111.265V142.597H115.168V138.698H107.364V130.894H111.265V134.795H119.069V142.601H115.168V146.5H126.873V142.599H122.972V138.696H130.776V134.793H134.679V126.991H138.58V123.088H134.677V119.182H138.58V115.282H130.776V111.381H126.873V119.185H130.776V123.088H122.972V107.48H119.069V111.381H115.168V107.48H111.262V103.577H115.166V99.6757H111.262V95.7725H107.361V91.8716H103.461V103.577H107.364V111.381H103.461V107.48H95.6587V99.6757H99.5596V95.7725H95.6565V91.8716H91.7556V91.8716ZM80.0484 138.696H76.1474V142.597H80.0484V138.698V138.696ZM29.3231 123.088V142.597H48.8321V123.088H29.3231ZM44.9312 138.696H33.2218V126.989H44.929V138.696H44.9312ZM138.58 134.793H134.677V138.696H138.58V134.793ZM76.1474 138.698V130.894H72.2443V134.795H68.3434V138.698H76.1452H76.1474ZM83.9493 138.698V130.894H80.0484V138.698H83.9515H83.9493ZM122.972 126.991V130.894H130.776V126.991H122.972ZM68.3412 130.892V119.182H64.438V130.89H68.3412V130.892ZM80.0461 130.892V119.182H76.1452V123.086H72.2421V126.987H76.1452V130.89H80.0461V130.892ZM107.361 115.284V126.989H119.066V115.284H107.361ZM68.3412 103.577H60.5393V111.381H56.6362V123.088H60.5393V119.182H64.4402V111.381H68.3434V115.282H72.2443V119.182H76.1474V115.282H80.0484V111.381H76.1474V107.48H68.3412V103.577ZM115.166 119.185H111.262V123.088H115.166V119.182V119.185ZM83.9493 115.284H80.0461V119.185H83.9493V115.284ZM52.7352 111.381H44.9312V115.284H52.733V111.381H52.7352ZM29.3208 99.6757V95.7725H25.4199V103.577H29.3208V107.48H25.4199V111.381H29.3208V115.284H37.1271V111.381H33.2218V107.48H37.1249V103.577H33.2218V99.6757H29.3208V99.6757ZM138.58 111.381V99.6757H134.677V103.577H130.778V111.381H138.58ZM41.028 107.48H37.1271V111.381H41.028V107.48ZM119.069 103.577H115.168V107.48H119.069V103.577ZM33.224 64.5563H25.4199V84.0675H29.3231V80.1644H33.2218V76.2635H29.3208V72.3603H33.224V76.2635H37.1271V80.1644H41.028V84.0675H37.1271V87.9685H33.2218V91.8716H44.929V87.9685H41.028V84.0675H56.6362V87.9685H48.8343V91.8716H52.7352V95.7725H44.9312V99.6757H41.028V107.478H52.7352V103.579H44.9312V99.6779H52.733V103.579H60.5393V87.9707H72.2443V95.7747H64.4424V99.6779H76.1474V95.7747H83.9493V91.8738H76.1474V84.0697H80.0484V76.2613H76.1474V80.1622H72.2443V84.0653H60.5393V80.1622H44.9312V76.2613H41.028V64.5541H37.1271V68.4572H33.2218V64.5541L33.224 64.5563ZM80.0484 103.579V99.6779H76.1474V107.48H83.9493V103.579H80.0484ZM126.873 99.6779H122.972V103.579H126.873V99.6779ZM41.0303 95.7747H33.2218V99.6779H41.0258V95.7747H41.0303ZM138.58 87.9707H122.972V91.8716H119.069V95.7725H126.873V91.8716H130.776V99.6734H134.679V91.8716H138.58V87.9685V87.9707ZM33.224 91.8694H29.3208V95.7703H33.224V91.8694ZM91.7556 84.0653H87.8524V87.9663H91.7556V84.0653ZM33.224 84.0653H29.3208V87.9663H33.224V84.0653ZM83.9515 84.0653H80.0484V87.9663H83.9515V84.0653ZM87.8524 84.0653V76.2613H83.9515V84.0631H87.8524V84.0653ZM95.6565 80.1622H91.7556V84.0653H95.6565V80.1622ZM103.461 72.3603V80.1622H107.364V72.3603H103.461ZM95.6587 68.4572V60.6531H91.7556V76.2613H95.6565V72.3581H99.5596V68.4594H95.6565L95.6587 68.4572ZM56.6362 64.5541H48.8343V68.4572H44.929V72.3581H48.8299V68.4594H52.733V72.3603H48.8299V76.2635H52.733V72.3603H56.634V76.2635H68.3412V72.3603H72.2421V68.4594H68.3412V64.5563H64.438V72.3603H60.5393V68.4594H56.6362V64.5563V64.5541ZM138.58 68.4594H134.677V72.3603H138.58V68.4594ZM83.9515 72.3603V64.5585H80.0484V72.3603H83.9515ZM134.677 64.5585H126.875V68.4594H134.677V64.5563V64.5585ZM60.5393 52.8491V48.9482H56.6362V64.5563H64.4402V60.6576H60.5393V56.7544H64.4402V52.8513H60.5393V52.8491ZM107.364 64.5541V56.7522H103.461V64.5541H107.364V64.5541ZM76.1474 64.5541V56.7522H72.2443V64.5541H76.1474ZM83.9493 56.7522H80.0484V60.6531H83.9515V56.75L83.9493 56.7522ZM68.3434 56.7522H64.4402V60.6531H68.3434V56.75V56.7522ZM99.5596 56.7522H95.6565V60.6531H99.5596V56.75V56.7522ZM91.7556 56.7522H87.8524V60.6531H91.7556V56.75V56.7522ZM138.58 60.6531H111.265V33.34H138.58V60.6553V60.6531ZM52.7352 60.6531H25.4199V33.34H52.7352V60.6553V60.6531ZM87.8546 45.045V33.34H80.0484V37.2432H83.9515V41.1419H80.0484V48.9459H76.1474V52.8491H83.9493V56.75H87.8524V48.9482H83.9515V45.045H87.8524H87.8546ZM72.2443 52.8469H68.3434V56.75H72.2443V52.8513V52.8469ZM29.3231 37.2454V56.7544H48.8321V37.2432H29.3231V37.2454ZM115.166 37.2454V56.7544H134.679V37.2432H115.168L115.166 37.2454ZM103.461 52.8513H99.5596V56.7522H103.461V52.8513ZM44.9312 52.8513H33.2218V41.1419H44.929V52.8491L44.9312 52.8513ZM107.364 48.9482H103.461V52.8513H107.364V48.9482ZM130.776 52.8513H119.069V41.1419H130.776V52.8491V52.8513ZM76.1474 45.0472V33.34H72.2443V37.2432H68.3434V41.1419H60.5393V37.2432H56.6362V45.045H60.5393V48.9482H72.2443V45.0472H76.1474ZM64.4402 33.34H60.5393V37.2432H64.4402V33.34ZM126.873 84.0675V80.1644H130.776V84.0675H138.58V80.1644H134.679V72.3625H126.873V68.4594H122.972V76.2613H119.069V72.3603H115.168V68.4594H122.97V64.5563H111.265V68.4594H103.463V72.3603H99.5596V87.9685H95.6565V91.8716H99.5596V87.9685H107.361V91.8716H119.069V87.9685H111.267V84.0675H115.168V80.1644H122.97V76.2635H126.873V80.1644H122.972V84.0675H126.873V84.0675ZM95.6587 56.7522V52.8513H99.5618V45.0472H107.364V37.241H103.461V41.1441H91.7556V45.0472H87.8524V48.9482H91.7556V56.7522H95.6565H95.6587Z" fill="black"/>
</svg>
